<?xml version="1.0" encoding="utf-8"?>
<!-- Generator: Adobe Illustrator 16.0.0, SVG Export Plug-In . SVG Version: 6.00 Build 0)  -->
<!DOCTYPE svg PUBLIC "-//W3C//DTD SVG 1.1//EN" "http://www.w3.org/Graphics/SVG/1.1/DTD/svg11.dtd">
<svg version="1.1" xmlns="http://www.w3.org/2000/svg" xmlns:xlink="http://www.w3.org/1999/xlink" x="0px" y="0px" width="666px"
	 height="421.24px" viewBox="179.5 0 666 421.24" enable-background="new 179.5 0 666 421.24" xml:space="preserve">
<g id="圖層_6">
</g>
<g id="圖層_3">
	<linearGradient id="SVGID_1_" gradientUnits="userSpaceOnUse" x1="217.2917" y1="198.0798" x2="393.7683" y2="198.0798">
		<stop  offset="0" style="stop-color:#FFFFFF"/>
		<stop  offset="1" style="stop-color:#000000"/>
	</linearGradient>
	<path opacity="0.3" fill="url(#SVGID_1_)" d="M350.963,233.668l-3.763-2.34c-0.359-0.222-0.711-0.46-1.071-0.688
		c19.494-3.346,32.585-21.862,29.239-41.355c-2.339-13.625-12.31-24.688-25.619-28.423l0.186,14.76l-8.106-16.052h-0.114
		c-19.754-0.924-36.517,14.342-37.44,34.096c0,0.003,0,0.004,0,0.007c-0.036,0.682,0,1.357,0,2.033
		c-2.818-3.219-5.385-6.67-7.078-10.451c-3.428-7.652-3.494-16.327-3.225-26.863c0.538-20.886,1.442-41.928,2.614-62.903
		c17.488-1.947,30.969-16.312,31.805-33.888c0.047-1.095,0.03-2.178,0-3.248c0-0.27,0-0.539-0.042-0.802
		c-0.072-1.041-0.168-2.07-0.329-3.087c0-0.168-0.06-0.329-0.09-0.491c-0.144-0.861-0.323-1.711-0.526-2.555
		c-0.078-0.312-0.156-0.598-0.24-0.939c-0.251-0.909-0.526-1.795-0.85-2.698c-0.107-0.293-0.233-0.598-0.347-0.873
		c-0.251-0.652-0.526-1.298-0.819-1.933c-0.156-0.335-0.305-0.67-0.466-0.999c-0.048-0.084-0.078-0.174-0.126-0.257l0,0
		c-7.801-15.416-25.504-23.054-42.071-18.152l0.24,19.205l-8.018-15.866c-13.53,7.751-20.45,23.399-17.081,38.625h-0.037
		c0.055,0.257,0.132,0.496,0.192,0.753c0.114,0.473,0.233,0.939,0.365,1.406c0.167,0.599,0.358,1.197,0.556,1.795
		c0.149,0.437,0.293,0.88,0.461,1.316c0.245,0.634,0.52,1.251,0.795,1.867c0.162,0.358,0.305,0.729,0.479,1.082
		c0.455,0.93,0.949,1.833,1.483,2.711c0.186,0.311,0.395,0.599,0.598,0.903c0.383,0.598,0.766,1.196,1.197,1.753
		c0.257,0.353,0.533,0.688,0.801,1.035c0.395,0.496,0.796,0.986,1.197,1.459c0.293,0.342,0.598,0.665,0.904,0.993
		c0.442,0.461,0.891,0.91,1.358,1.353c0.305,0.293,0.598,0.599,0.939,0.873c0.526,0.467,1.077,0.916,1.633,1.353
		c0.282,0.216,0.557,0.449,0.844,0.664c0.85,0.599,1.723,1.196,2.626,1.795c0.167,0.108,0.354,0.191,0.521,0.293
		c0.76,0.443,1.526,0.862,2.315,1.251c0.341,0.167,0.688,0.311,1.035,0.467c0.646,0.293,1.298,0.598,1.968,0.825
		c0.389,0.149,0.784,0.287,1.197,0.425c0.658,0.222,1.328,0.425,2.004,0.599c0.395,0.107,0.796,0.221,1.197,0.316
		c0.729,0.174,1.478,0.317,2.232,0.449l0.143,0.029c-0.49,8.848-0.929,17.699-1.316,26.558
		c-8.642-17.772-30.055-25.176-47.828-16.534c-0.633,0.308-1.257,0.635-1.872,0.979l6.33,17.35l-13.037-12.563
		c-6.981,6.384-11.143,15.277-11.571,24.728c-0.167,3.315,0.139,6.637,0.909,9.865c4.511,19.252,23.774,31.2,43.025,26.689
		c9.617-2.254,17.875-8.381,22.822-16.931c0,0.897-0.061,1.795-0.084,2.698c-0.239,9.297-0.538,20.867,4.099,31.2
		c3.141,7,8.19,12.684,13.162,17.781c3.249,3.32,6.617,6.527,10.069,9.632c3.395,4.566,7.829,8.258,12.935,10.77
		c5.672,4.373,11.547,8.483,17.62,12.276l3.793,2.357c3.41,2.112,6.904,4.283,10.327,6.539c-0.598-0.06-1.196-0.125-1.795-0.155
		c-15.58-0.726-29.84,8.709-35.263,23.333l22.376,18.206l-24.614-5.708c0.025,19.789,16.087,35.811,35.876,35.786
		c5.355-0.007,10.641-1.214,15.468-3.532c-0.55,0.693-1.105,1.384-1.664,2.07c-1.101,1.367-2.188,2.728-3.261,4.079
		c-14.562,18.439-18.612,35.952-11.403,49.299l8.771-4.738c-7.018-12.988,3.536-29.62,10.452-38.38
		c1.053-1.336,2.122-2.673,3.207-4.009c9.315-11.588,19.857-24.679,19.6-40.761C393.375,259.956,369.833,245.382,350.963,233.668z"
		/>
	<linearGradient id="SVGID_2_" gradientUnits="userSpaceOnUse" x1="647.74" y1="198.0798" x2="824.2048" y2="198.0798">
		<stop  offset="0" style="stop-color:#000000"/>
		<stop  offset="1" style="stop-color:#EEEEEE"/>
	</linearGradient>
	<path opacity="0.3" fill="url(#SVGID_2_)" d="M690.547,233.666l3.763-2.339c0.359-0.222,0.712-0.461,1.071-0.688
		c-19.492-3.357-32.573-21.879-29.217-41.372c2.345-13.62,12.319-24.676,25.627-28.407l-0.186,14.76l8.106-16.052h0.103
		c19.754-0.923,36.517,14.342,37.44,34.097c0,0.002,0,0.004,0,0.006c0.035,0.683,0,1.358,0,2.034
		c2.818-3.219,5.385-6.671,7.078-10.452c3.428-7.651,3.494-16.327,3.225-26.863c-0.539-20.886-1.442-41.928-2.615-62.903
		c-17.487-1.947-30.969-16.312-31.805-33.887c-0.048-1.095-0.029-2.178,0-3.249c0-0.269,0-0.538,0.042-0.802
		c0.071-1.041,0.168-2.069,0.329-3.087c0-0.168,0.06-0.329,0.09-0.49c0.145-0.861,0.323-1.711,0.526-2.555
		c0.077-0.312,0.155-0.599,0.239-0.939c0.252-0.909,0.527-1.795,0.85-2.698c0.107-0.293,0.233-0.599,0.347-0.873
		c0.252-0.652,0.527-1.299,0.819-1.934c0.156-0.334,0.307-0.669,0.473-0.999c0.043-0.083,0.072-0.173,0.12-0.257l0,0
		c7.798-15.406,25.486-23.045,42.048-18.157l-0.24,19.204l8.018-15.866c13.535,7.75,20.458,23.402,17.087,38.631h0.036
		c-0.055,0.258-0.132,0.497-0.191,0.754c-0.113,0.473-0.233,0.939-0.365,1.406c-0.167,0.599-0.359,1.196-0.557,1.795
		c-0.148,0.437-0.293,0.879-0.46,1.316c-0.245,0.634-0.521,1.25-0.796,1.866c-0.162,0.359-0.306,0.73-0.479,1.083
		c-0.455,0.93-0.949,1.833-1.484,2.71c-0.185,0.312-0.395,0.599-0.598,0.903c-0.383,0.599-0.766,1.197-1.197,1.753
		c-0.256,0.354-0.531,0.688-0.801,1.035c-0.395,0.497-0.796,0.987-1.197,1.46c-0.293,0.341-0.598,0.664-0.903,0.993
		c-0.437,0.461-0.892,0.91-1.358,1.352c-0.305,0.294-0.598,0.599-0.939,0.874c-0.525,0.467-1.076,0.915-1.633,1.353
		c-0.281,0.215-0.557,0.448-0.844,0.664c-0.85,0.598-1.723,1.196-2.626,1.765c-0.167,0.107-0.354,0.191-0.521,0.293
		c-0.76,0.443-1.525,0.861-2.315,1.251c-0.341,0.167-0.688,0.312-1.035,0.467c-0.646,0.293-1.298,0.598-1.969,0.825
		c-0.388,0.149-0.783,0.287-1.196,0.425c-0.658,0.222-1.328,0.425-2.004,0.599c-0.395,0.107-0.796,0.221-1.197,0.317
		c-0.729,0.173-1.477,0.316-2.23,0.448h-0.145c0.491,8.851,0.93,17.703,1.316,26.558c8.642-17.773,30.055-25.176,47.828-16.534
		c0.633,0.308,1.258,0.634,1.871,0.979l-6.33,17.351l13.025-12.505c6.98,6.384,11.143,15.277,11.57,24.728
		c0.166,3.315-0.139,6.638-0.91,9.866c-4.51,19.251-23.773,31.2-43.024,26.688c-9.616-2.254-17.876-8.381-22.821-16.931
		c0,0.897,0.066,1.795,0.083,2.698c0.239,9.298,0.539,20.868-4.098,31.2c-3.142,7-8.19,12.684-13.163,17.781
		c-3.248,3.32-6.617,6.527-10.068,9.633c-3.395,4.565-7.829,8.257-12.936,10.769c-5.671,4.374-11.547,8.484-17.619,12.277
		l-3.793,2.356c-3.41,2.112-6.904,4.284-10.326,6.54c0.598-0.061,1.196-0.125,1.795-0.156c15.58-0.725,29.84,8.711,35.262,23.334
		l-22.375,18.205l24.613-5.707c-0.025,19.789-16.087,35.811-35.877,35.787c-5.354-0.008-10.641-1.215-15.468-3.533
		c0.551,0.693,1.105,1.383,1.663,2.07c1.102,1.367,2.188,2.729,3.261,4.08c14.563,18.439,18.612,35.951,11.403,49.299l-8.771-4.738
		c7.018-12.99-3.536-29.621-10.452-38.381c-1.053-1.336-2.121-2.672-3.207-4.008c-9.303-11.559-19.845-24.662-19.588-40.732
		C648.134,259.955,671.653,245.381,690.547,233.666z"/>
</g>
<g id="圖層_2">
	<path fill="#3F3D56" d="M697.658,100.851c0.021-4.296-3.443-7.793-7.739-7.814l0,0H344.553c-4.296,0.021-7.761,3.518-7.741,7.814
		l0,0v209.347h360.845V100.851z"/>
	<path opacity="0.7" fill="#0088A9" d="M684.51,269.372c0,13.808-11.192,25-25,25H376.745c-13.807,0-25-11.192-25-25V131.18
		c0-13.807,11.193-25,25-25H659.51c13.808,0,25,11.193,25,25V269.372z"/>
	<linearGradient id="SVGID_3_" gradientUnits="userSpaceOnUse" x1="262.5481" y1="380.0984" x2="813.1667" y2="380.0984">
		<stop  offset="0" style="stop-color:#FFFFFF"/>
		<stop  offset="1" style="stop-color:#000000"/>
	</linearGradient>
	<ellipse opacity="0.1" fill="url(#SVGID_3_)" cx="537.857" cy="380.098" rx="275.31" ry="19.743"/>
	<polygon fill="#2F2E41" points="564.726,380.696 471.529,379.505 471.8,377.114 476.308,337.682 558.157,337.682 564.177,377.114 
		564.637,380.099 	"/>
	<polygon opacity="0.1" enable-background="new    " points="568.654,380.014 515.449,380.014 462.148,379.333 462.459,376.598 
		568.127,376.598 	"/>
	<rect x="444.378" y="377.28" fill="#3F3D56" width="141.464" height="3.416"/>
	<path fill="#3F3D56" d="M336.813,308.11v24.521c0,4.275,3.465,7.741,7.741,7.741h345.365c4.275,0,7.739-3.466,7.739-7.741V308.11
		H336.813z"/>
	<polygon opacity="0.1" enable-background="new    " points="522.193,340.372 564.726,378.988 558.199,340.372 	"/>
	<path fill="#57B894" d="M639.933,363.718l11.457-6.701c-1.552-2.643-3.531-5.01-5.856-7.006l-21.604,6.719l16.926-9.955
		c-13.33-7.303-30.057-2.416-37.359,10.915c-2.221,4.054-3.385,8.603-3.384,13.226c0,15.202,12.325,15.729,27.521,15.729
		c15.197,0,27.521-0.526,27.521-15.729c0.004-3.846-0.799-7.648-2.357-11.164L639.933,363.718z"/>
	<path opacity="0.1" enable-background="new    " d="M642.853,378.495c-1.223-1.221-2.586-2.291-4.063-3.188
		c-2.076-1.382-4.23-2.788-6.683-3.261c-2.147-0.413-4.374-0.065-6.581-0.186c-3.81-0.233-7.395-1.878-10.057-4.612
		c-1.568-1.616-2.795-3.59-4.68-4.841c-2.027-1.328-4.601-1.615-7-1.286c-0.699,0.104-1.393,0.248-2.075,0.431
		c-1.081,2.993-1.632,6.151-1.628,9.333c0,15.202,12.324,15.729,27.521,15.729c7.377,0,14.077-0.126,19.02-1.992l-0.826-1.544
		C645.017,381.431,644.025,379.892,642.853,378.495z"/>
	<rect x="366.525" y="178.782" opacity="0.3" fill="#FFFFFF" enable-background="new    " width="11.063" height="3.357"/>
	<rect x="661.696" y="178.881" opacity="0.3" fill="#FFFFFF" enable-background="new    " width="11.063" height="3.359"/>
	<rect x="366.625" y="202.386" opacity="0.3" fill="#FFFFFF" enable-background="new    " width="11.062" height="3.358"/>
	<rect x="366.724" y="225.99" opacity="0.3" fill="#FFFFFF" enable-background="new    " width="11.062" height="3.358"/>
	<rect x="366.823" y="249.589" opacity="0.3" fill="#FFFFFF" enable-background="new    " width="11.062" height="3.358"/>
	<g opacity="0.2">
		<rect x="377.588" y="180.398" fill="#F2F2F2" width="3.138" height="0.131"/>
		<path fill="#F2F2F2" d="M652.191,180.529h-6.165v-0.131h6.165V180.529z M639.854,180.529h-6.166v-0.131h6.166V180.529z
			 M627.516,180.529h-6.172v-0.131h6.172V180.529z M615.178,180.529h-6.173v-0.131h6.173V180.529z M602.84,180.529h-6.172v-0.131
			h6.172V180.529z M590.496,180.529h-6.166v-0.131h6.166V180.529z M578.158,180.529h-6.172v-0.131h6.172V180.529z M565.819,180.529
			h-6.171v-0.131h6.171V180.529z M553.481,180.529h-6.172v-0.131h6.172V180.529z M541.137,180.529h-6.166v-0.131h6.166V180.529z
			 M528.801,180.529h-6.173v-0.131h6.173V180.529z M516.463,180.529h-6.174v-0.131h6.174V180.529z M504.123,180.529h-6.171v-0.131
			h6.171V180.529z M491.779,180.529h-6.166v-0.131h6.166V180.529z M479.442,180.529h-6.167v-0.131h6.167V180.529z M467.104,180.529
			h-6.151v-0.131h6.172L467.104,180.529z M454.765,180.529h-6.171v-0.131h6.171V180.529z M442.422,180.529h-6.166v-0.131h6.166
			V180.529z M430.084,180.529h-6.166v-0.131h6.177L430.084,180.529z M417.745,180.529h-6.172v-0.131h6.172V180.529z
			 M405.407,180.529h-6.171v-0.131h6.171V180.529z M393.064,180.529h-6.167v-0.131h6.167V180.529z"/>
		<rect x="658.364" y="180.398" fill="#F2F2F2" width="3.139" height="0.131"/>
		<rect x="377.588" y="180.398" fill="#F2F2F2" width="3.138" height="0.131"/>
		<path fill="#F2F2F2" d="M652.191,180.529h-6.165v-0.131h6.165V180.529z M639.854,180.529h-6.166v-0.131h6.166V180.529z
			 M627.516,180.529h-6.172v-0.131h6.172V180.529z M615.178,180.529h-6.173v-0.131h6.173V180.529z M602.84,180.529h-6.172v-0.131
			h6.172V180.529z M590.496,180.529h-6.166v-0.131h6.166V180.529z M578.158,180.529h-6.172v-0.131h6.172V180.529z M565.819,180.529
			h-6.171v-0.131h6.171V180.529z M553.481,180.529h-6.172v-0.131h6.172V180.529z M541.137,180.529h-6.166v-0.131h6.166V180.529z
			 M528.801,180.529h-6.173v-0.131h6.173V180.529z M516.463,180.529h-6.174v-0.131h6.174V180.529z M504.123,180.529h-6.171v-0.131
			h6.171V180.529z M491.779,180.529h-6.166v-0.131h6.166V180.529z M479.442,180.529h-6.167v-0.131h6.167V180.529z M467.104,180.529
			h-6.151v-0.131h6.172L467.104,180.529z M454.765,180.529h-6.171v-0.131h6.171V180.529z M442.422,180.529h-6.166v-0.131h6.166
			V180.529z M430.084,180.529h-6.166v-0.131h6.177L430.084,180.529z M417.745,180.529h-6.172v-0.131h6.172V180.529z
			 M405.407,180.529h-6.171v-0.131h6.171V180.529z M393.064,180.529h-6.167v-0.131h6.167V180.529z"/>
		<rect x="658.364" y="180.398" fill="#F2F2F2" width="3.139" height="0.131"/>
	</g>
	<rect x="366.525" y="155.246" opacity="0.3" fill="#FFFFFF" enable-background="new    " width="11.063" height="3.358"/>
	<rect x="661.696" y="155.345" opacity="0.3" fill="#FFFFFF" enable-background="new    " width="11.063" height="3.358"/>
	<g opacity="0.2">
		<rect x="377.588" y="156.862" fill="#F2F2F2" width="3.138" height="0.131"/>
		<path fill="#F2F2F2" d="M652.191,156.992h-6.165v-0.131h6.165V156.992z M639.854,156.992h-6.166v-0.131h6.166V156.992z
			 M627.516,156.992h-6.172v-0.131h6.172V156.992z M615.178,156.992h-6.173v-0.131h6.173V156.992z M602.84,156.992h-6.172v-0.131
			h6.172V156.992z M590.496,156.992h-6.166v-0.131h6.166V156.992z M578.158,156.992h-6.172v-0.131h6.172V156.992z M565.819,156.992
			h-6.171v-0.131h6.171V156.992z M553.481,156.992h-6.172v-0.131h6.172V156.992z M541.137,156.992h-6.166v-0.131h6.166V156.992z
			 M528.801,156.992h-6.173v-0.131h6.173V156.992z M516.463,156.992h-6.174v-0.131h6.174V156.992z M504.123,156.992h-6.171v-0.131
			h6.171V156.992z M491.779,156.992h-6.166v-0.131h6.166V156.992z M479.442,156.992h-6.167v-0.131h6.167V156.992z M467.104,156.992
			h-6.151v-0.131h6.172L467.104,156.992z M454.765,156.992h-6.171v-0.131h6.171V156.992z M442.422,156.992h-6.166v-0.131h6.166
			V156.992z M430.084,156.992h-6.166v-0.131h6.177L430.084,156.992z M417.745,156.992h-6.172v-0.131h6.172V156.992z
			 M405.407,156.992h-6.171v-0.131h6.171V156.992z M393.064,156.992h-6.167v-0.131h6.167V156.992z"/>
		<rect x="658.364" y="156.862" fill="#F2F2F2" width="3.139" height="0.131"/>
	</g>
	<rect x="661.696" y="202.386" opacity="0.3" fill="#FFFFFF" enable-background="new    " width="11.063" height="3.358"/>
	<g opacity="0.2">
		<rect x="377.588" y="203.903" fill="#F2F2F2" width="3.138" height="0.131"/>
		<path fill="#F2F2F2" d="M652.191,204.028h-6.165v-0.13h6.165V204.028z M639.854,204.028h-6.166v-0.13h6.166V204.028z
			 M627.516,204.028h-6.172v-0.13h6.172V204.028z M615.178,204.028h-6.173v-0.13h6.173V204.028z M602.84,204.028h-6.172v-0.13h6.172
			V204.028z M590.496,204.028h-6.166v-0.13h6.166V204.028z M578.158,204.028h-6.172v-0.13h6.172V204.028z M565.819,204.028h-6.171
			v-0.13h6.171V204.028z M553.481,204.028h-6.172v-0.13h6.172V204.028z M541.137,204.028h-6.166v-0.13h6.166V204.028z
			 M528.801,204.028h-6.173v-0.13h6.173V204.028z M516.463,204.028h-6.174v-0.13h6.174V204.028z M504.123,204.028h-6.171v-0.13
			h6.171V204.028z M491.779,204.028h-6.166v-0.13h6.166V204.028z M479.442,204.028h-6.167v-0.13h6.167V204.028z M467.104,204.028
			h-6.151v-0.13h6.172L467.104,204.028z M454.765,204.028h-6.171v-0.13h6.171V204.028z M442.422,204.028h-6.166v-0.13h6.166V204.028
			z M430.084,204.028h-6.166v-0.13h6.177L430.084,204.028z M417.745,204.028h-6.172v-0.13h6.172V204.028z M405.407,204.028h-6.171
			v-0.13h6.171V204.028z M393.064,204.028h-6.167v-0.13h6.167V204.028z"/>
		<rect x="658.364" y="203.903" fill="#F2F2F2" width="3.139" height="0.131"/>
		<rect x="377.588" y="203.903" fill="#F2F2F2" width="3.138" height="0.131"/>
		<path fill="#F2F2F2" d="M652.191,204.028h-6.165v-0.13h6.165V204.028z M639.854,204.028h-6.166v-0.13h6.166V204.028z
			 M627.516,204.028h-6.172v-0.13h6.172V204.028z M615.178,204.028h-6.173v-0.13h6.173V204.028z M602.84,204.028h-6.172v-0.13h6.172
			V204.028z M590.496,204.028h-6.166v-0.13h6.166V204.028z M578.158,204.028h-6.172v-0.13h6.172V204.028z M565.819,204.028h-6.171
			v-0.13h6.171V204.028z M553.481,204.028h-6.172v-0.13h6.172V204.028z M541.137,204.028h-6.166v-0.13h6.166V204.028z
			 M528.801,204.028h-6.173v-0.13h6.173V204.028z M516.463,204.028h-6.174v-0.13h6.174V204.028z M504.123,204.028h-6.171v-0.13
			h6.171V204.028z M491.779,204.028h-6.166v-0.13h6.166V204.028z M479.442,204.028h-6.167v-0.13h6.167V204.028z M467.104,204.028
			h-6.151v-0.13h6.172L467.104,204.028z M454.765,204.028h-6.171v-0.13h6.171V204.028z M442.422,204.028h-6.166v-0.13h6.166V204.028
			z M430.084,204.028h-6.166v-0.13h6.177L430.084,204.028z M417.745,204.028h-6.172v-0.13h6.172V204.028z M405.407,204.028h-6.171
			v-0.13h6.171V204.028z M393.064,204.028h-6.167v-0.13h6.167V204.028z"/>
		<rect x="658.364" y="203.903" fill="#F2F2F2" width="3.139" height="0.131"/>
	</g>
	<rect x="661.696" y="225.891" opacity="0.3" fill="#FFFFFF" enable-background="new    " width="11.063" height="3.358"/>
	<g opacity="0.2">
		<rect x="377.588" y="227.403" fill="#F2F2F2" width="3.138" height="0.13"/>
		<path fill="#F2F2F2" d="M652.191,227.533h-6.165v-0.13h6.165V227.533z M639.854,227.533h-6.166v-0.13h6.166V227.533z
			 M627.516,227.533h-6.172v-0.13h6.172V227.533z M615.178,227.533h-6.173v-0.13h6.173V227.533z M602.84,227.533h-6.172v-0.13h6.172
			V227.533z M590.496,227.533h-6.166v-0.13h6.166V227.533z M578.158,227.533h-6.172v-0.13h6.172V227.533z M565.819,227.533h-6.171
			v-0.13h6.171V227.533z M553.481,227.533h-6.172v-0.13h6.172V227.533z M541.137,227.533h-6.166v-0.13h6.166V227.533z
			 M528.801,227.533h-6.173v-0.13h6.173V227.533z M516.463,227.533h-6.174v-0.13h6.174V227.533z M504.123,227.533h-6.171v-0.13
			h6.171V227.533z M491.779,227.533h-6.166v-0.13h6.166V227.533z M479.442,227.533h-6.167v-0.13h6.167V227.533z M467.104,227.533
			h-6.151v-0.13h6.172L467.104,227.533z M454.765,227.533h-6.171v-0.13h6.171V227.533z M442.422,227.533h-6.166v-0.13h6.166V227.533
			z M430.084,227.533h-6.166v-0.13h6.177L430.084,227.533z M417.745,227.533h-6.172v-0.13h6.172V227.533z M405.407,227.533h-6.171
			v-0.13h6.171V227.533z M393.064,227.533h-6.167v-0.13h6.167V227.533z"/>
		<rect x="658.364" y="227.403" fill="#F2F2F2" width="3.139" height="0.13"/>
		<rect x="377.588" y="227.403" fill="#F2F2F2" width="3.138" height="0.13"/>
		<path fill="#F2F2F2" d="M652.191,227.533h-6.165v-0.13h6.165V227.533z M639.854,227.533h-6.166v-0.13h6.166V227.533z
			 M627.516,227.533h-6.172v-0.13h6.172V227.533z M615.178,227.533h-6.173v-0.13h6.173V227.533z M602.84,227.533h-6.172v-0.13h6.172
			V227.533z M590.496,227.533h-6.166v-0.13h6.166V227.533z M578.158,227.533h-6.172v-0.13h6.172V227.533z M565.819,227.533h-6.171
			v-0.13h6.171V227.533z M553.481,227.533h-6.172v-0.13h6.172V227.533z M541.137,227.533h-6.166v-0.13h6.166V227.533z
			 M528.801,227.533h-6.173v-0.13h6.173V227.533z M516.463,227.533h-6.174v-0.13h6.174V227.533z M504.123,227.533h-6.171v-0.13
			h6.171V227.533z M491.779,227.533h-6.166v-0.13h6.166V227.533z M479.442,227.533h-6.167v-0.13h6.167V227.533z M467.104,227.533
			h-6.151v-0.13h6.172L467.104,227.533z M454.765,227.533h-6.171v-0.13h6.171V227.533z M442.422,227.533h-6.166v-0.13h6.166V227.533
			z M430.084,227.533h-6.166v-0.13h6.177L430.084,227.533z M417.745,227.533h-6.172v-0.13h6.172V227.533z M405.407,227.533h-6.171
			v-0.13h6.171V227.533z M393.064,227.533h-6.167v-0.13h6.167V227.533z"/>
		<rect x="658.364" y="227.403" fill="#F2F2F2" width="3.139" height="0.13"/>
	</g>
	<rect x="661.696" y="249.39" opacity="0.3" fill="#FFFFFF" enable-background="new    " width="11.063" height="3.358"/>
	<g opacity="0.2">
		<rect x="377.588" y="250.907" fill="#F2F2F2" width="3.138" height="0.132"/>
		<path fill="#F2F2F2" d="M652.191,251.039h-6.165v-0.132h6.165V251.039z M639.854,251.039h-6.166v-0.132h6.166V251.039z
			 M627.516,251.039h-6.172v-0.132h6.172V251.039z M615.178,251.039h-6.173v-0.132h6.173V251.039z M602.84,251.039h-6.172v-0.132
			h6.172V251.039z M590.496,251.039h-6.166v-0.132h6.166V251.039z M578.158,251.039h-6.172v-0.132h6.172V251.039z M565.819,251.039
			h-6.171v-0.132h6.171V251.039z M553.481,251.039h-6.172v-0.132h6.172V251.039z M541.137,251.039h-6.166v-0.132h6.166V251.039z
			 M528.801,251.039h-6.173v-0.132h6.173V251.039z M516.463,251.039h-6.174v-0.132h6.174V251.039z M504.123,251.039h-6.171v-0.132
			h6.171V251.039z M491.779,251.039h-6.166v-0.132h6.166V251.039z M479.442,251.039h-6.167v-0.132h6.167V251.039z M467.104,251.039
			h-6.151v-0.132h6.172L467.104,251.039z M454.765,251.039h-6.171v-0.132h6.171V251.039z M442.422,251.039h-6.166v-0.132h6.166
			V251.039z M430.084,251.039h-6.166v-0.132h6.177L430.084,251.039z M417.745,251.039h-6.172v-0.132h6.172V251.039z
			 M405.407,251.039h-6.171v-0.132h6.171V251.039z M393.064,251.039h-6.167v-0.132h6.167V251.039z"/>
		<rect x="658.364" y="250.907" fill="#F2F2F2" width="3.139" height="0.132"/>
		<rect x="377.588" y="250.907" fill="#F2F2F2" width="3.138" height="0.132"/>
		<path fill="#F2F2F2" d="M652.191,251.039h-6.165v-0.132h6.165V251.039z M639.854,251.039h-6.166v-0.132h6.166V251.039z
			 M627.516,251.039h-6.172v-0.132h6.172V251.039z M615.178,251.039h-6.173v-0.132h6.173V251.039z M602.84,251.039h-6.172v-0.132
			h6.172V251.039z M590.496,251.039h-6.166v-0.132h6.166V251.039z M578.158,251.039h-6.172v-0.132h6.172V251.039z M565.819,251.039
			h-6.171v-0.132h6.171V251.039z M553.481,251.039h-6.172v-0.132h6.172V251.039z M541.137,251.039h-6.166v-0.132h6.166V251.039z
			 M528.801,251.039h-6.173v-0.132h6.173V251.039z M516.463,251.039h-6.174v-0.132h6.174V251.039z M504.123,251.039h-6.171v-0.132
			h6.171V251.039z M491.779,251.039h-6.166v-0.132h6.166V251.039z M479.442,251.039h-6.167v-0.132h6.167V251.039z M467.104,251.039
			h-6.151v-0.132h6.172L467.104,251.039z M454.765,251.039h-6.171v-0.132h6.171V251.039z M442.422,251.039h-6.166v-0.132h6.166
			V251.039z M430.084,251.039h-6.166v-0.132h6.177L430.084,251.039z M417.745,251.039h-6.172v-0.132h6.172V251.039z
			 M405.407,251.039h-6.171v-0.132h6.171V251.039z M393.064,251.039h-6.167v-0.132h6.167V251.039z"/>
		<rect x="658.364" y="250.907" fill="#F2F2F2" width="3.139" height="0.132"/>
	</g>
	<g opacity="0.2">
		<rect x="377.588" y="278.335" fill="#F2F2F2" width="3.138" height="0.132"/>
		<path fill="#F2F2F2" d="M652.191,278.467h-6.165v-0.132h6.165V278.467z M639.854,278.467h-6.166v-0.132h6.166V278.467z
			 M627.516,278.467h-6.172v-0.132h6.172V278.467z M615.178,278.467h-6.173v-0.132h6.173V278.467z M602.84,278.467h-6.172v-0.132
			h6.172V278.467z M590.496,278.467h-6.166v-0.132h6.166V278.467z M578.158,278.467h-6.172v-0.132h6.172V278.467z M565.819,278.467
			h-6.171v-0.132h6.171V278.467z M553.481,278.467h-6.172v-0.132h6.172V278.467z M541.137,278.467h-6.166v-0.132h6.166V278.467z
			 M528.801,278.467h-6.173v-0.132h6.173V278.467z M516.463,278.467h-6.174v-0.132h6.174V278.467z M504.123,278.467h-6.171v-0.132
			h6.171V278.467z M491.779,278.467h-6.166v-0.132h6.166V278.467z M479.442,278.467h-6.167v-0.132h6.167V278.467z M467.104,278.467
			h-6.151v-0.132h6.172L467.104,278.467z M454.765,278.467h-6.171v-0.132h6.171V278.467z M442.422,278.467h-6.166v-0.132h6.166
			V278.467z M430.084,278.467h-6.166v-0.132h6.177L430.084,278.467z M417.745,278.467h-6.172v-0.132h6.172V278.467z
			 M405.407,278.467h-6.171v-0.132h6.171V278.467z M393.064,278.467h-6.167v-0.132h6.167V278.467z"/>
		<rect x="658.364" y="278.335" fill="#F2F2F2" width="3.139" height="0.132"/>
		<rect x="377.588" y="278.335" fill="#F2F2F2" width="3.138" height="0.132"/>
		<path fill="#F2F2F2" d="M652.191,278.467h-6.165v-0.132h6.165V278.467z M639.854,278.467h-6.166v-0.132h6.166V278.467z
			 M627.516,278.467h-6.172v-0.132h6.172V278.467z M615.178,278.467h-6.173v-0.132h6.173V278.467z M602.84,278.467h-6.172v-0.132
			h6.172V278.467z M590.496,278.467h-6.166v-0.132h6.166V278.467z M578.158,278.467h-6.172v-0.132h6.172V278.467z M565.819,278.467
			h-6.171v-0.132h6.171V278.467z M553.481,278.467h-6.172v-0.132h6.172V278.467z M541.137,278.467h-6.166v-0.132h6.166V278.467z
			 M528.801,278.467h-6.173v-0.132h6.173V278.467z M516.463,278.467h-6.174v-0.132h6.174V278.467z M504.123,278.467h-6.171v-0.132
			h6.171V278.467z M491.779,278.467h-6.166v-0.132h6.166V278.467z M479.442,278.467h-6.167v-0.132h6.167V278.467z M467.104,278.467
			h-6.151v-0.132h6.172L467.104,278.467z M454.765,278.467h-6.171v-0.132h6.171V278.467z M442.422,278.467h-6.166v-0.132h6.166
			V278.467z M430.084,278.467h-6.166v-0.132h6.177L430.084,278.467z M417.745,278.467h-6.172v-0.132h6.172V278.467z
			 M405.407,278.467h-6.171v-0.132h6.171V278.467z M393.064,278.467h-6.167v-0.132h6.167V278.467z"/>
		<rect x="658.364" y="278.335" fill="#F2F2F2" width="3.139" height="0.132"/>
	</g>
	
		<line fill="none" stroke="#F2F2F2" stroke-width="0.1" stroke-miterlimit="10" x1="413.65" y1="157.024" x2="413.65" y2="251.268"/>
	
		<line fill="none" stroke="#F2F2F2" stroke-width="0.1" stroke-miterlimit="10" x1="451.831" y1="157.024" x2="451.831" y2="251.268"/>
	
		<line fill="none" stroke="#F2F2F2" stroke-width="0.1" stroke-miterlimit="10" x1="490.012" y1="157.024" x2="490.012" y2="251.268"/>
	
		<line fill="none" stroke="#F2F2F2" stroke-width="0.1" stroke-miterlimit="10" x1="528.193" y1="157.024" x2="528.193" y2="251.268"/>
	
		<line fill="none" stroke="#F2F2F2" stroke-width="0.1" stroke-miterlimit="10" x1="566.375" y1="157.024" x2="566.375" y2="251.268"/>
	
		<line fill="none" stroke="#F2F2F2" stroke-width="0.1" stroke-miterlimit="10" x1="604.554" y1="157.024" x2="604.554" y2="251.268"/>
	
		<line fill="none" stroke="#F2F2F2" stroke-width="0.1" stroke-miterlimit="10" x1="642.736" y1="157.024" x2="642.736" y2="251.268"/>
	<path fill="none" stroke="#3F3D56" stroke-width="4" stroke-miterlimit="10" d="M345.223,373.636
		c-1.569-2.883,0.209-6.413,2.244-8.981c2.034-2.567,4.503-5.23,4.451-8.52c-0.079-4.708-5.074-7.49-9.064-9.985
		c-2.963-1.853-5.696-4.053-8.139-6.553c-1.021-0.962-1.868-2.095-2.5-3.349c-0.827-1.84-0.806-3.932-0.753-5.945
		c0.178-6.724,0.511-13.434,1-20.132"/>
	<path fill="#57B894" d="M324.872,309.816c0.113-2.498,1.493-4.767,3.661-6.015l1.642,3.247l-0.052-3.934
		c0.786-0.229,1.604-0.327,2.421-0.292c4.039,0.2,7.151,3.638,6.951,7.677c-0.2,4.037-3.637,7.151-7.675,6.95
		c-4.023-0.199-7.129-3.61-6.954-7.634H324.872z"/>
	<path fill="#57B894" d="M323.768,333.389c4.042,0.147,7.438-3.008,7.587-7.049c0.148-4.042-3.008-7.438-7.049-7.586
		c-1.319-0.049-2.627,0.261-3.786,0.895l1.298,3.557l-2.668-2.563c-1.43,1.311-2.281,3.132-2.37,5.068
		c-0.034,0.68,0.027,1.361,0.184,2.023C317.716,330.927,320.493,333.234,323.768,333.389z"/>
	<path opacity="0.1" enable-background="new    " d="M325.86,311.772c1.695,0.183,3.342,0.712,5.042,0.815
		c1.699,0.105,3.567-0.303,4.645-1.621c0.575-0.711,0.867-1.616,1.354-2.391c0.464-0.723,1.1-1.322,1.851-1.742
		c1.745,3.648,0.203,8.021-3.445,9.767c-3.648,1.745-8.02,0.202-9.765-3.445c-0.221-0.463-0.393-0.947-0.514-1.446
		C325.308,311.719,325.585,311.741,325.86,311.772z"/>
	<path opacity="0.1" enable-background="new    " d="M323.768,333.389c4.039,0.204,7.479-2.903,7.685-6.942
		c0.061-1.214-0.179-2.423-0.702-3.519c-0.583,0.392-1.083,0.893-1.475,1.475c-0.522,0.789-0.842,1.7-1.455,2.428
		c-1.145,1.344-3.096,1.782-4.869,1.705c-1.773-0.079-3.483-0.586-5.229-0.749c-0.247,0-0.492-0.036-0.743-0.041
		C317.734,330.927,320.501,333.227,323.768,333.389z"/>
	<path fill="#656380" d="M330.334,368.827c0,0-6.629-0.204-8.627-1.628c-1.999-1.424-10.171-3.116-10.686-0.837
		s-9.962,11.367-2.483,11.403c7.479,0.035,17.387-1.167,19.385-2.394S330.334,368.827,330.334,368.827z"/>
	<path opacity="0.2" enable-background="new    " d="M308.406,376.969c7.484,0.06,17.386-1.161,19.378-2.394
		c1.52-0.927,2.125-4.248,2.328-5.773h0.221c0,0-0.419,5.343-2.393,6.581c-1.975,1.239-11.9,2.441-19.384,2.394
		c-2.16,0-2.902-0.783-2.86-1.921C305.978,376.526,306.797,376.957,308.406,376.969z"/>
	<path opacity="0.1" fill="#FFFFFF" d="M681.186,133.285v132.909c0,13.282-11.02,24.045-24.618,24.045h-81.145L424.479,109.24
		h232.089C670.167,109.24,681.186,120.003,681.186,133.285z"/>
</g>
<g id="圖層_4">
	<g>
		<g enable-background="new    ">
			<g>
				<g>
					<path fill="#0088A9" d="M744.697,313.859l-19.944-22.329l-0.202,27.144l6.003,17.41l-59.657,10.348l-2.53-47.072l-4.295-36.15
						c-0.525-4.43,2-8.656,6.15-10.291l16.419-6.467l23.122,4.242l9.303,3.537c3.905,1.483,7.387,3.905,10.136,7.05l28.002,32.022"
						/>
				</g>
			</g>
			<g>
				<g>
					<path fill="#0088A9" d="M723.354,286.189c0.004-0.096,1.312,0.098,3.368-0.237c2.036-0.317,4.848-1.313,7.183-3.461
						c2.33-2.153,3.55-4.877,4.03-6.881c0.501-2.021,0.414-3.342,0.51-3.337c0.029-0.003,0.076,0.323,0.083,0.915
						c0.011,0.593-0.046,1.455-0.26,2.499c-0.406,2.071-1.615,4.922-4.036,7.158c-2.425,2.232-5.362,3.207-7.461,3.443
						c-1.057,0.129-1.921,0.118-2.51,0.059C723.672,286.292,723.349,286.218,723.354,286.189z"/>
				</g>
			</g>
			<g>
				<g>
					<g>
						<path fill="#0088A9" d="M725.098,317.517c0.14,0,0.176-9.404,0.08-21c-0.095-11.601-0.284-21.001-0.423-20.999
							c-0.141,0.001-0.177,9.403-0.081,21.003C724.768,308.117,724.959,317.518,725.098,317.517z"/>
					</g>
				</g>
			</g>
		</g>
		<g enable-background="new    ">
			<path fill="#0088A9" d="M722.914,324.417l-36.048-14.51c-2.908-1.171-4.899-3.891-5.137-7.016l-2.639-34.56
				c0,0,0.313-14.699-8.869-15.414l-5.224,2.056c-6.75,3.587-8.422,13.413-7.503,21.002c1.306,10.782,1.85,26.04,3.311,35.398
				c1.195,7.654,5.58,14.388,13.072,16.358l44.399,9.612L722.914,324.417z"/>
		</g>
		<g>
			<g>
				<path fill="#263238" d="M679.608,273.604c0.016-0.002,0.055,0.271,0.112,0.791c0.059,0.563,0.134,1.321,0.232,2.277
					c0.184,2.025,0.442,4.877,0.763,8.381c0.305,3.554,0.666,7.764,1.068,12.435c0.098,1.172,0.198,2.371,0.302,3.596
					c0.106,1.225,0.181,2.479,0.46,3.696c0.264,1.223,0.852,2.368,1.793,3.24c0.934,0.875,2.104,1.514,3.325,2.069
					c9.939,4.301,19.102,7.853,25.751,10.342c3.3,1.216,5.986,2.207,7.895,2.909c0.9,0.332,1.615,0.597,2.146,0.792
					c0.489,0.186,0.744,0.291,0.738,0.307c-0.005,0.016-0.271-0.06-0.77-0.215c-0.538-0.175-1.264-0.41-2.177-0.706
					c-1.888-0.625-4.606-1.563-7.952-2.766c-6.688-2.412-15.863-5.91-25.833-10.225c-1.239-0.564-2.456-1.224-3.455-2.159
					c-1.008-0.933-1.654-2.204-1.922-3.481c-0.288-1.278-0.355-2.542-0.459-3.764c-0.098-1.225-0.192-2.426-0.286-3.598
					c-0.361-4.675-0.69-8.887-0.965-12.446c-0.255-3.509-0.463-6.364-0.61-8.394c-0.06-0.959-0.107-1.719-0.142-2.284
					C679.597,273.88,679.591,273.604,679.608,273.604z"/>
			</g>
		</g>
		<g>
			<g>
				<path fill="#263238" d="M658.954,292.392c0.019-0.002,0.041,0.159,0.072,0.464c0.033,0.359,0.071,0.799,0.118,1.333
					c0.107,1.231,0.253,2.891,0.427,4.904c0.199,2.069,0.45,4.53,0.81,7.253c0.369,2.715,0.808,5.711,1.627,8.752
					c0.389,1.538,0.933,2.956,1.76,4.176c0.826,1.228,1.743,2.331,2.692,3.309c1.906,1.949,3.94,3.379,5.769,4.327
					c3.688,1.917,6.368,1.944,6.332,2.072c-0.002,0.018-0.163,0.013-0.469-0.012c-0.307-0.02-0.761-0.056-1.335-0.171
					c-1.148-0.203-2.802-0.654-4.685-1.586c-1.878-0.926-3.97-2.353-5.929-4.319c-0.976-0.987-1.919-2.106-2.768-3.356
					c-0.863-1.255-1.449-2.772-1.833-4.31c-0.832-3.089-1.254-6.096-1.603-8.826c-0.337-2.733-0.554-5.206-0.708-7.28
					c-0.15-2.076-0.231-3.758-0.273-4.921c-0.013-0.536-0.022-0.979-0.029-1.34C658.928,292.553,658.938,292.393,658.954,292.392z"
					/>
			</g>
		</g>
		<g>
			<g>
				<path fill="#263238" d="M674.37,316.576c-0.051-0.014,0.103-0.785,0.654-1.921c0.547-1.133,1.556-2.6,3.027-3.861
					c1.477-1.255,3.082-2.022,4.286-2.385c1.209-0.366,1.995-0.398,2.002-0.349c0.015,0.082-0.743,0.232-1.889,0.671
					c-1.146,0.435-2.663,1.219-4.087,2.43c-1.416,1.217-2.43,2.592-3.038,3.655C674.713,315.88,674.446,316.603,674.37,316.576z"/>
			</g>
		</g>
		<g>
			<g>
				<path fill="#FFFFFF" d="M681.46,290.293c0.004-0.007,0.08,0.027,0.228,0.101c0.171,0.089,0.382,0.2,0.646,0.34
					c0.578,0.271,1.421,0.699,2.571,1.089c2.268,0.787,5.818,1.587,10.104,0.863c4.231-0.691,9.151-3.186,12.559-7.803
					c1.687-2.278,2.991-5.088,3.289-8.167c0.15-1.53,0.023-3.121-0.481-4.621c-0.494-1.495-1.399-2.882-2.599-3.971
					c-1.192-1.089-2.675-1.856-4.231-2.057c-1.533-0.241-3.177,0.162-4.241,1.192c-0.514,0.516-0.833,1.207-0.826,1.919
					c-0.003,0.711,0.271,1.41,0.695,1.98c0.854,1.166,2.292,1.709,3.668,1.913c2.807,0.386,5.567-0.121,7.879-1.129
					c2.32-1.012,4.22-2.516,5.584-4.175c1.369-1.666,2.212-3.469,2.717-5.104c0.507-1.641,0.661-3.129,0.686-4.338
					c0.019-1.211-0.109-2.148-0.203-2.78c-0.054-0.291-0.096-0.527-0.132-0.715c-0.027-0.163-0.038-0.247-0.031-0.248
					c0,0,0.512,1.284,0.554,3.743c0.004,1.225-0.124,2.738-0.615,4.415c-0.487,1.669-1.324,3.521-2.71,5.242
					c-1.382,1.714-3.313,3.272-5.688,4.326c-2.367,1.047-5.19,1.589-8.105,1.2c-1.433-0.207-3.003-0.771-3.971-2.075
					c-0.476-0.635-0.793-1.424-0.794-2.258c-0.011-0.837,0.371-1.662,0.96-2.252c1.208-1.169,2.993-1.586,4.64-1.333
					c1.667,0.212,3.237,1.028,4.49,2.175c1.263,1.145,2.211,2.6,2.731,4.176c0.527,1.575,0.652,3.232,0.496,4.817
					c-0.315,3.187-1.67,6.062-3.401,8.387c-3.506,4.707-8.545,7.213-12.861,7.874c-4.368,0.693-7.954-0.175-10.223-1.022
					C682.548,291.124,681.46,290.293,681.46,290.293z"/>
			</g>
		</g>
		<g>
			<g>
				<path fill="#FFFFFF" d="M657.846,281.075c-0.021-0.021,0.18-0.29,0.592-0.738c0.416-0.445,1.06-1.057,1.947-1.694
					c1.752-1.315,4.648-2.514,7.976-2.825c1.664-0.178,3.277-0.098,4.699,0.196c1.425,0.295,2.65,0.775,3.622,1.273
					c0.974,0.495,1.712,0.983,2.202,1.34c0.488,0.362,0.741,0.583,0.724,0.61c-0.051,0.075-1.128-0.74-3.072-1.644
					c-1.924-0.921-4.868-1.688-8.125-1.297c-3.261,0.31-6.07,1.415-7.832,2.626C658.796,280.112,657.913,281.143,657.846,281.075z"
					/>
			</g>
		</g>
		<g>
			<g>
				<path fill="#FFFFFF" d="M663.612,256.36c0.074-0.08,0.926,1.099,2.917,2.123c0.985,0.509,2.258,0.939,3.714,1.088
					c1.452,0.154,3.092-0.011,4.649-0.643c1.55-0.654,2.827-1.696,3.745-2.832c0.926-1.134,1.523-2.337,1.858-3.395
					c0.687-2.132,0.455-3.567,0.565-3.562c0.026-0.003,0.098,0.344,0.121,0.982c0.024,0.637-0.049,1.572-0.36,2.679
					c-0.306,1.106-0.892,2.374-1.838,3.573c-0.938,1.199-2.271,2.308-3.907,3.001c-1.646,0.666-3.371,0.822-4.883,0.637
					c-1.518-0.181-2.827-0.661-3.825-1.229c-1-0.563-1.715-1.173-2.146-1.643C663.786,256.674,663.593,256.378,663.612,256.36z"/>
			</g>
		</g>
		<g>
			<g>
				<path fill="#FFFFFF" d="M695.024,313.191c-0.016-0.004,0.009-0.236,0.076-0.683c0.102-0.437,0.243-1.098,0.638-1.865
					c0.728-1.553,2.539-3.498,5.396-4.684c2.819-1.268,6.692-1.51,10.598-0.38c1.906,0.566,4.094,1.265,5.524,3.126
					c0.697,0.915,0.938,2.278,0.405,3.392c-0.511,1.117-1.515,1.886-2.568,2.424c-1.075,0.524-2.242,0.822-3.413,0.846
					c-1.16,0.022-2.372-0.266-3.277-1.017c-0.914-0.739-1.396-1.881-1.467-2.971c-0.084-1.099,0.138-2.16,0.49-3.124
					c1.536-3.855,4.644-6.307,7.43-7.519c2.834-1.241,5.397-1.37,7.092-1.219c1.705,0.175,2.59,0.546,2.59,0.546
					c-0.015,0.062-0.918-0.245-2.605-0.358c-1.672-0.093-4.182,0.089-6.936,1.34c-1.365,0.625-2.775,1.521-4.045,2.747
					c-1.264,1.22-2.401,2.781-3.107,4.615c-0.332,0.921-0.532,1.928-0.449,2.934c0.072,1.001,0.504,1.995,1.308,2.643
					c0.794,0.656,1.886,0.925,2.97,0.902c1.089-0.022,2.196-0.304,3.205-0.797c0.992-0.503,1.909-1.226,2.347-2.191
					c0.455-0.956,0.265-2.092-0.353-2.916c-0.609-0.84-1.502-1.447-2.411-1.914c-0.915-0.462-1.897-0.776-2.849-1.062
					c-3.824-1.129-7.58-0.927-10.348,0.267c-2.806,1.121-4.598,2.966-5.359,4.456C695.116,312.224,695.093,313.21,695.024,313.191z"
					/>
			</g>
		</g>
		<g>
			<g>
				<path fill="#FFFFFF" d="M671.024,326.206c-0.014-0.092,1.374-0.209,3.456-0.951c2.071-0.725,4.829-2.21,7.087-4.708
					s3.457-5.392,3.972-7.525c0.529-2.145,0.506-3.538,0.598-3.534c0.03,0,0.063,0.347,0.053,0.974
					c-0.012,0.627-0.092,1.536-0.317,2.639c-0.438,2.192-1.619,5.197-3.946,7.772c-2.328,2.571-5.198,4.05-7.336,4.706
					c-1.073,0.336-1.97,0.509-2.593,0.58C671.375,326.233,671.026,326.235,671.024,326.206z"/>
			</g>
		</g>
		<g>
			<g>
				<path fill="#FFFFFF" d="M659.341,299.339c-0.004-0.014,0.146-0.074,0.437-0.172c0.29-0.096,0.722-0.229,1.287-0.372
					c1.124-0.272,2.803-0.646,4.91-0.497c1.049,0.081,2.195,0.319,3.337,0.823c1.137,0.504,2.273,1.294,3.115,2.444
					c0.826,1.148,1.334,2.643,1.211,4.202c-0.058,0.777-0.296,1.558-0.715,2.255c-0.423,0.688-1.057,1.31-1.89,1.58
					c-0.821,0.259-1.786,0.127-2.436-0.481c-0.64-0.62-0.8-1.491-0.84-2.246c-0.058-1.537,0.273-3.011,0.851-4.287
					c1.146-2.587,3.278-4.283,5.257-4.989c1.992-0.738,3.759-0.684,4.902-0.486c0.578,0.1,1.014,0.229,1.304,0.33
					c0.287,0.108,0.436,0.174,0.43,0.189c-0.015,0.047-0.619-0.193-1.759-0.334c-1.132-0.137-2.848-0.133-4.755,0.619
					c-1.891,0.723-3.897,2.369-4.973,4.85c-0.541,1.224-0.845,2.634-0.784,4.084c0.035,0.709,0.202,1.452,0.697,1.922
					c0.488,0.464,1.282,0.586,1.96,0.37c0.687-0.221,1.247-0.755,1.626-1.37c0.378-0.626,0.597-1.331,0.652-2.043
					c0.122-1.429-0.341-2.83-1.101-3.906c-0.773-1.076-1.838-1.843-2.918-2.338c-1.085-0.498-2.189-0.748-3.203-0.851
					c-2.044-0.185-3.711,0.128-4.84,0.344C659.973,299.21,659.352,299.377,659.341,299.339z"/>
			</g>
		</g>
		<g opacity="0.3">
			<g>
				<path d="M712.554,320.298c-3.854-2.176-7.627-3.85-11.656-5.682c-4.03-1.832-7.979-4.183-10.616-7.737
					c-4.974-6.706-4.408-16.383-9.5-23c0.332,4.45,0.664,8.898,0.997,13.349c0.305,4.077-0.319,8.108,2.307,10.881
					c2.213,2.335,6.527,4.125,9.582,5.133C699.806,315.265,706.416,318.272,712.554,320.298"/>
			</g>
		</g>
		<g>
			<g>
				<g>
					<path fill="#0088A9" d="M775.19,371.094c0,0,30.162,8.348,31.374,8.774c1.815,0.639,1.511,7.296-1.316,7.191
						c-1.338-0.048-23.169,0.813-25.927,0.642c-2.759-0.172-11.079-3.452-11.079-3.452L775.19,371.094z"/>
				</g>
			</g>
			<g>
				<g>
					<g>
						<path fill="#263238" d="M787.756,382.603c0.152,0.02,0.355-1.575,1.328-3.239c0.952-1.679,2.229-2.654,2.134-2.777
							c-0.053-0.116-1.551,0.733-2.57,2.525C787.61,380.892,787.629,382.614,787.756,382.603z"/>
					</g>
				</g>
			</g>
			<g>
				<g>
					<g>
						<path fill="#263238" d="M784.611,381.177c0.147,0.026,0.452-1.4,1.256-2.976c0.787-1.585,1.751-2.679,1.643-2.781
							c-0.082-0.101-1.262,0.887-2.094,2.556C784.573,379.634,784.482,381.168,784.611,381.177z"/>
					</g>
				</g>
			</g>
			<g>
				<g>
					<g>
						<path fill="#263238" d="M781.662,380.385c0.151-0.008,0.034-1.516,0.705-3.186c0.641-1.683,1.748-2.711,1.643-2.821
							c-0.062-0.115-1.412,0.818-2.113,2.638C781.178,378.828,781.539,380.429,781.662,380.385z"/>
					</g>
				</g>
			</g>
			<g>
				<g>
					<g>
						<path fill="#263238" d="M782.196,376.491c0.055,0.014,0.32-0.829,0.324-2.244c-0.002-0.706-0.084-1.55-0.307-2.461
							c-0.11-0.453-0.258-0.925-0.448-1.4c-0.098-0.237-0.209-0.514-0.482-0.738c-0.281-0.252-0.793-0.2-1.036,0.052
							c-0.277,0.241-0.365,0.581-0.402,0.853c-0.03,0.277-0.046,0.535-0.039,0.797c0.008,0.521,0.075,1.017,0.186,1.476
							c0.224,0.922,0.584,1.694,0.929,2.307c0.703,1.224,1.313,1.849,1.355,1.816c0.069-0.049-0.437-0.751-1.039-1.981
							c-0.296-0.616-0.605-1.37-0.791-2.242c-0.093-0.436-0.145-0.899-0.145-1.379c0.013-0.463,0.006-1.041,0.278-1.265
							c0.144-0.12,0.272-0.128,0.398-0.032c0.133,0.101,0.244,0.307,0.33,0.526c0.187,0.45,0.338,0.896,0.457,1.331
							c0.237,0.867,0.353,1.673,0.399,2.354C782.251,375.624,782.114,376.477,782.196,376.491z"/>
					</g>
				</g>
			</g>
			<g>
				<g>
					<g>
						<path fill="#263238" d="M782.159,376.183c0.014-0.055-0.715-0.305-1.944-0.313c-0.614-0.001-1.35,0.063-2.142,0.262
							c-0.391,0.106-0.811,0.207-1.231,0.454c-0.413,0.21-0.846,0.783-0.683,1.379c0.13,0.561,0.609,0.954,1.086,1.076
							c0.48,0.135,0.947,0.085,1.354-0.004c0.828-0.189,1.471-0.598,1.961-0.964c0.965-0.757,1.438-1.337,1.4-1.38
							c-0.052-0.064-0.623,0.434-1.606,1.089c-0.493,0.314-1.113,0.657-1.849,0.8c-0.366,0.07-0.762,0.092-1.119-0.017
							c-0.354-0.096-0.649-0.368-0.733-0.715c-0.087-0.337,0.116-0.646,0.447-0.842c0.322-0.201,0.722-0.316,1.095-0.427
							c0.744-0.215,1.444-0.313,2.031-0.355C781.406,376.143,782.145,376.265,782.159,376.183z"/>
					</g>
				</g>
			</g>
			<g>
				<g>
					<g>
						<path fill="#263238" d="M792.389,382.925c0.149-0.017,0.002-1.305,0.596-2.72c0.564-1.426,1.572-2.244,1.476-2.36
							c-0.049-0.124-1.311,0.59-1.943,2.169C791.866,381.587,792.268,382.978,792.389,382.925z"/>
					</g>
				</g>
			</g>
			<g>
				<g>
					<g>
						<path fill="#263238" d="M771.344,384.318c-0.014,0.031,0.401,0.225,1.167,0.548c0.774,0.294,1.909,0.703,3.355,1.041
							c2.886,0.728,6.997,1.141,11.516,1.091c4.52-0.049,8.593-0.256,11.547-0.373c1.398-0.075,2.57-0.138,3.495-0.186
							c0.825-0.055,1.281-0.103,1.279-0.138c-0.001-0.033-0.459-0.054-1.286-0.06c-0.925,0.008-2.1,0.017-3.499,0.026
							c-3.055,0.061-7.084,0.138-11.538,0.226c-4.498,0.046-8.561-0.305-11.435-0.936
							C773.062,384.967,771.38,384.223,771.344,384.318z"/>
					</g>
				</g>
			</g>
			<g>
				<g>
					<g>
						<path fill="#263238" d="M770.453,385.006c0.041,0.069,0.866-0.415,2.259-1.023c1.378-0.592,3.441-1.3,5.708-0.949
							c2.273,0.348,3.885,1.873,4.933,2.935c1.058,1.097,1.678,1.827,1.739,1.776c0.045-0.039-0.47-0.841-1.478-2.018
							c-0.507-0.584-1.153-1.26-1.998-1.871c-0.836-0.614-1.913-1.138-3.117-1.321c-2.431-0.372-4.573,0.439-5.938,1.124
							C771.178,384.365,770.423,384.955,770.453,385.006z"/>
					</g>
				</g>
			</g>
		</g>
		<g>
			<g>
				<g>
					<path fill="#0088A9" d="M743.176,362.765c0,0-28.541,18.688-29.564,19.462c-1.538,1.161,0.226,6.692,2.888,5.733
						c1.26-0.453,25.21-7.114,27.785-8.117c2.576-1.002,9.508-6.653,9.508-6.653L743.176,362.765z"/>
				</g>
			</g>
			<g>
				<g>
					<g>
						<path fill="#263238" d="M734.699,377.549c0.125-0.028-0.381-1.675-1.908-3.056c-1.516-1.397-3.201-1.751-3.217-1.625
							c-0.053,0.145,1.462,0.688,2.876,1.998C733.884,376.156,734.562,377.614,734.699,377.549z"/>
					</g>
				</g>
			</g>
			<g>
				<g>
					<g>
						<path fill="#263238" d="M737.262,375.235c0.121-0.048-0.431-1.483-1.739-2.809c-1.3-1.336-2.722-1.917-2.771-1.797
							c-0.071,0.131,1.178,0.881,2.409,2.15C736.406,374.037,737.13,375.302,737.262,375.235z"/>
					</g>
				</g>
			</g>
			<g>
				<g>
					<g>
						<path fill="#263238" d="M739.833,373.586c0.13,0.004-0.013-1.632-1.247-3.141c-1.22-1.52-2.791-1.997-2.813-1.871
							c-0.067,0.137,1.301,0.781,2.422,2.19C739.339,372.151,739.685,373.622,739.833,373.586z"/>
					</g>
				</g>
			</g>
			<g>
				<g>
					<g>
						<path fill="#263238" d="M738.139,370.035c0.076-0.036-0.315-0.808-0.646-2.137c-0.162-0.663-0.298-1.466-0.334-2.363
							c-0.02-0.448-0.011-0.921,0.029-1.406c0.017-0.235,0.061-0.466,0.156-0.604c0.092-0.129,0.217-0.158,0.389-0.089
							c0.327,0.129,0.497,0.684,0.65,1.121c0.146,0.458,0.237,0.915,0.28,1.357c0.088,0.887,0.023,1.699-0.074,2.377
							c-0.199,1.355-0.467,2.177-0.387,2.202c0.052,0.019,0.44-0.762,0.74-2.141c0.143-0.688,0.25-1.534,0.183-2.479
							c-0.032-0.474-0.119-0.968-0.271-1.465c-0.073-0.251-0.165-0.491-0.279-0.747c-0.118-0.247-0.305-0.544-0.642-0.689
							c-0.308-0.166-0.811-0.061-1.003,0.266c-0.192,0.296-0.215,0.593-0.235,0.851c-0.036,0.51-0.035,1.002-0.003,1.47
							c0.066,0.937,0.245,1.765,0.457,2.438C737.584,369.344,738.094,370.064,738.139,370.035z"/>
					</g>
				</g>
			</g>
			<g>
				<g>
					<g>
						<path fill="#263238" d="M738.083,369.732c0.036,0.072,0.704-0.266,1.855-0.547c0.573-0.136,1.268-0.255,2.043-0.279
							c0.388-0.007,0.805-0.018,1.174,0.075c0.373,0.086,0.661,0.318,0.682,0.666c0.025,0.356-0.174,0.704-0.482,0.905
							c-0.307,0.212-0.69,0.31-1.062,0.355c-0.745,0.086-1.438-0.052-2.005-0.201c-1.137-0.328-1.83-0.625-1.862-0.549
							c-0.021,0.05,0.604,0.459,1.757,0.889c0.576,0.201,1.313,0.393,2.158,0.322c0.416-0.036,0.874-0.133,1.29-0.406
							c0.418-0.263,0.756-0.782,0.709-1.355c-0.025-0.617-0.61-1.033-1.066-1.105c-0.479-0.108-0.909-0.078-1.314-0.06
							c-0.813,0.051-1.534,0.213-2.116,0.399C738.671,369.224,738.054,369.684,738.083,369.732z"/>
					</g>
				</g>
			</g>
			<g>
				<g>
					<g>
						<path fill="#263238" d="M720.135,386.918c0.033,0.045,0.48-0.289,0.699-1.105c0.238-0.798,0.09-2.022-0.535-3.098
							c-0.297-0.542-0.641-1.012-0.955-1.424c-0.313-0.416-0.636-0.79-0.971-1.04c-0.328-0.258-0.675-0.372-0.911-0.383
							c-0.238-0.01-0.36,0.05-0.356,0.078c0.001,0.078,0.509,0.042,1.038,0.576c0.268,0.255,0.534,0.613,0.823,1.041
							c0.292,0.424,0.611,0.888,0.891,1.394c0.577,1.006,0.749,2.048,0.626,2.783C720.382,386.479,720.068,386.869,720.135,386.918z
							"/>
					</g>
				</g>
			</g>
			<g>
				<g>
					<g>
						<path fill="#263238" d="M730.383,379.262c0.133,0.014,0.091-1.436-1.005-2.734c-1.083-1.313-2.502-1.61-2.513-1.478
							c-0.056,0.14,1.153,0.613,2.125,1.8C729.983,378.017,730.235,379.292,730.383,379.262z"/>
					</g>
				</g>
			</g>
			<g>
				<g>
					<g>
						<path fill="#263238" d="M750.857,374.198c-0.025-0.03-0.463,0.291-1.256,0.861c-0.802,0.555-1.981,1.332-3.519,2.154
							c-1.533,0.826-3.429,1.682-5.588,2.489c-2.162,0.807-4.586,1.565-7.15,2.309c-5.134,1.479-9.782,2.83-13.136,3.839
							c-1.608,0.494-2.944,0.903-3.967,1.218c-0.934,0.298-1.445,0.479-1.435,0.513c0.01,0.034,0.539-0.083,1.488-0.323
							c1.035-0.274,2.385-0.633,4.011-1.064c3.381-0.922,8.041-2.217,13.181-3.696c2.567-0.745,5.003-1.523,7.172-2.359
							c2.169-0.838,4.069-1.736,5.598-2.609c1.53-0.873,2.69-1.704,3.463-2.313C750.481,374.594,750.877,374.221,750.857,374.198z"
							/>
					</g>
				</g>
			</g>
			<g>
				<g>
					<g>
						<path fill="#263238" d="M751.915,374.581c0.015-0.056-0.884-0.388-2.419-0.643c-1.507-0.236-3.793-0.36-5.997,0.732
							c-1.092,0.542-1.958,1.365-2.568,2.206c-0.619,0.839-1.029,1.679-1.338,2.389c-0.602,1.43-0.848,2.349-0.793,2.37
							c0.075,0.029,0.443-0.854,1.116-2.219c0.678-1.329,1.75-3.273,3.81-4.295c2.054-1.022,4.234-0.975,5.726-0.829
							C750.966,374.453,751.897,374.661,751.915,374.581z"/>
					</g>
				</g>
			</g>
		</g>
		<g>
			<g>
				<g>
					<path fill="#263238" d="M802.489,317.191c0,0,8.561,3.059,8.598,12.658c0.068,18.39-37.158,38.662-37.158,38.662l-49.54-32.825
						l-3.104-1.256C721.284,334.43,788.158,309.308,802.489,317.191z"/>
				</g>
			</g>
			<g>
				<g>
					<g>
						<path fill="#455A64" d="M749.483,352.266c0.021,0.027,0.479-0.285,1.291-0.877c0.812-0.588,1.971-1.46,3.389-2.558
							c2.836-2.192,6.694-5.3,10.847-8.862c4.151-3.566,7.807-6.911,10.402-9.383c1.298-1.236,2.338-2.248,3.042-2.964
							c0.706-0.711,1.084-1.116,1.059-1.142c-0.023-0.025-0.446,0.333-1.194,1c-0.811,0.731-1.87,1.688-3.148,2.843
							c-2.656,2.404-6.344,5.702-10.489,9.264c-4.146,3.557-7.963,6.703-10.739,8.965c-1.337,1.09-2.443,1.993-3.288,2.685
							C749.882,351.872,749.462,352.238,749.483,352.266z"/>
					</g>
				</g>
			</g>
			<g>
				<g>
					<g>
						<path fill="#455A64" d="M788.504,324.065c0.019-0.122-2.191-0.339-4.773,0.432c-2.59,0.755-4.328,2.137-4.245,2.229
							c0.081,0.131,1.889-1.02,4.389-1.743C786.363,324.234,788.506,324.22,788.504,324.065z"/>
					</g>
				</g>
			</g>
			<g>
				<g>
					<g>
						<path fill="#455A64" d="M784.235,321.166c-0.043-0.118-1.631,0.58-2.937,2.211c-1.318,1.619-1.667,3.317-1.54,3.336
							c0.144,0.05,0.684-1.493,1.933-3.021C782.921,322.151,784.315,321.298,784.235,321.166z"/>
					</g>
				</g>
			</g>
			<g>
				<g>
					<g>
						<path fill="#263238" d="M805.212,379.396c0.027-0.057-0.59-0.176-1.276,0.388c-0.674,0.54-1.247,1.617-1.432,2.875
							c-0.187,1.269,0.096,2.432,0.452,3.171c0.352,0.753,0.736,1.106,0.778,1.071c0.068-0.048-0.203-0.466-0.446-1.204
							c-0.253-0.729-0.455-1.805-0.284-2.968c0.17-1.154,0.644-2.153,1.171-2.681C804.7,379.499,805.223,379.477,805.212,379.396z"
							/>
					</g>
				</g>
			</g>
		</g>
		<g>
			<g>
				<polygon fill="#455A64" points="791.095,287.146 773.449,331.876 697.478,333.113 696.07,329.002 722.697,328.037 
					735.493,288.359 				"/>
			</g>
			<g>
				<path fill="#EBEBEB" d="M755.614,306.511c0.975-0.661,2.777-0.397,3.653,0.389c0.878,0.786,1.162,2.147,0.717,3.236
					c-0.446,1.091-1.569,1.855-2.744,1.917c-1.252,0.068-2.553-0.714-2.903-1.914C753.988,308.936,754.376,307.144,755.614,306.511"
					/>
			</g>
		</g>
		<g>
			<g>
				<g>
					<path fill="#263238" d="M778.619,370.746c0,0-69.993-45.911-72.859-46.866c-2.865-0.956-9.792-5.494-16.719-3.583
						s-13.136,8.121-16.24,17.195c-1.774,5.186-2.612,14.032-3.004,20.667c-0.472,7.933,1.985,15.842,7.173,21.86
						c2.362,2.737,5.274,5.121,8.728,6.195c0.729,0.227,1.486,0.423,2.262,0.592c13.234,2.869,26.835-3.071,34.269-14.389
						l1.634-2.485c0,0,45.788,16.821,46.504,16.583L778.619,370.746z"/>
				</g>
			</g>
			<g>
				<g>
					<g>
						<path fill="#455A64" d="M692.026,358.107c0,0,0.126,0.065,0.384,0.171c0.276,0.109,0.656,0.261,1.146,0.453
							c1.033,0.398,2.522,0.973,4.438,1.71c3.892,1.466,9.509,3.582,16.49,6.212c7.005,2.614,15.396,5.722,24.811,9.146
							c9.415,3.423,19.849,7.179,30.991,10.953l0.201,0.067l0.1-0.189c1.75-3.341,3.596-6.866,5.469-10.442
							c0.955-1.825,1.901-3.636,2.787-5.326l0.107-0.206l-0.195-0.121c-21.016-13.343-39.82-25.28-53.389-33.894
							c-6.777-4.274-12.244-7.725-16.039-10.117c-1.878-1.172-3.341-2.085-4.355-2.718c-0.485-0.298-0.864-0.528-1.137-0.695
							c-0.257-0.152-0.396-0.222-0.396-0.222s0.121,0.096,0.369,0.265c0.268,0.177,0.637,0.42,1.111,0.735
							c1.003,0.65,2.449,1.589,4.307,2.795c3.774,2.426,9.213,5.918,15.954,10.249c13.547,8.648,32.319,20.629,53.302,34.022
							l-0.087-0.326c-0.884,1.688-1.83,3.5-2.787,5.324c-1.871,3.578-3.717,7.102-5.465,10.445l0.302-0.123
							c-11.138-3.761-21.575-7.501-31-10.895c-9.408-3.426-17.813-6.483-24.846-9.042c-7.003-2.569-12.638-4.636-16.542-6.069
							c-1.928-0.702-3.429-1.249-4.468-1.627c-0.496-0.175-0.882-0.312-1.163-0.411
							C692.165,358.142,692.026,358.107,692.026,358.107z"/>
					</g>
				</g>
			</g>
		</g>
		<g>
			<g>
				<path fill="#263238" d="M699.29,195.071c1.192-3.227,3.83-4.628,7.175-5.438c3.344-0.808,7.063,0.15,9.6,2.475
					c1.696,1.554,2.939,3.701,5.034,4.651c3.451,1.564,7.872-0.722,11.143,1.189c1.937,1.133,2.888,3.708,2.149,5.826
					c-0.737,2.118-3.079,3.547-5.3,3.233c2.247,1.062,2.667,4.446,1.118,6.392c-1.547,1.945-4.409,2.473-6.801,1.795
					c-2.393-0.677-4.38-2.348-6.069-4.171c-1.691-1.823-3.171-3.846-4.999-5.529c-1.831-1.684-4.114-3.04-6.599-3.132
					c-3.363-0.126-6.467,2.135-8.233,5.001c-1.764,2.865-2.423,6.261-2.916,9.591c-0.491,3.33-0.862,6.727-2.146,9.839
					c-0.151,0.364-0.367,0.77-0.753,0.851c-0.56,0.117-0.969-0.502-1.193-1.027c-2.528-5.93-3.879-12.357-3.948-18.804
					c-0.04-3.743,0.38-7.247,2.705-10.181C691.58,194.697,696.942,192.87,699.29,195.071"/>
			</g>
			<g>
				<g>
					<g>
						<g>
							<g>
								<g>
									<g>
										<g>
											<g>
												<g>
													<g>
														<g>
															<g>
																<g>
																	<path fill="#FFBE9D" d="M691.396,210.011l-5.145,37.391c-0.874,6.36,3.75,12.157,10.144,12.716l0,0
																		c5.967,0.523,11.295-3.737,12.105-9.673c0.385-2.813,0.71-5.16,0.768-5.446c0,0,9.644,0.413,11.627-8.914
																		c0.958-4.507,2.177-13.95,3.181-22.507c1.077-9.19-5.094-17.663-14.167-19.476l-0.903-0.181
																		C699.166,192.547,692.501,200.135,691.396,210.011z"/>
																</g>
															</g>
														</g>
													</g>
												</g>
											</g>
										</g>
									</g>
									<g>
										<g>
											<g>
												<g>
													<g>
														<g>
															<g>
																<g>
																	<path fill="#EB996E" d="M709.312,244.867c0,0-6.005-0.701-11.497-5.901c0,0,1.536,7.304,11.035,8.327
																		L709.312,244.867z"/>
																</g>
															</g>
														</g>
													</g>
												</g>
											</g>
										</g>
									</g>
								</g>
							</g>
						</g>
						<g>
							<g>
								<g>
									<g>
										<g>
											<g>
												<g>
													<g>
														<g>
															<g>
																<g>
																	<g>
																		<g>
																			<g>
																				<path fill="#263238" d="M720.1,219.296c-0.114,0.71-0.813,1.198-1.557,1.089
																					c-0.742-0.107-1.251-0.769-1.135-1.479c0.116-0.708,0.811-1.197,1.555-1.091
																					C719.708,217.923,720.216,218.586,720.1,219.296z"/>
																			</g>
																		</g>
																	</g>
																</g>
															</g>
														</g>
													</g>
												</g>
												<g>
													<g>
														<g>
															<g>
																<g>
																	<g>
																		<g>
																			<g>
																				<g>
																					<path fill="#263238" d="M721.15,217.765c-0.2,0.141-1.062-0.81-2.499-1.094
																						c-1.433-0.301-2.635,0.226-2.756,0.019c-0.062-0.093,0.17-0.374,0.696-0.615
																						c0.519-0.244,1.354-0.412,2.249-0.23c0.895,0.184,1.581,0.665,1.945,1.087
																						C721.161,217.359,721.248,217.703,721.15,217.765z"/>
																				</g>
																			</g>
																		</g>
																	</g>
																</g>
															</g>
														</g>
													</g>
												</g>
											</g>
											<g>
												<g>
													<g>
														<g>
															<g>
																<g>
																	<g>
																		<g>
																			<g>
																				<path fill="#263238" d="M705.911,216.969c-0.116,0.71-0.813,1.198-1.555,1.09
																					c-0.742-0.108-1.254-0.77-1.137-1.48c0.116-0.708,0.813-1.198,1.556-1.091
																					C705.518,215.595,706.027,216.259,705.911,216.969z"/>
																			</g>
																		</g>
																	</g>
																</g>
															</g>
														</g>
													</g>
												</g>
												<g>
													<g>
														<g>
															<g>
																<g>
																	<g>
																		<g>
																			<g>
																				<g>
																					<path fill="#263238" d="M706.973,215.211c-0.2,0.141-1.064-0.809-2.499-1.092
																						c-1.433-0.305-2.636,0.224-2.756,0.018c-0.061-0.094,0.17-0.374,0.697-0.617
																						c0.519-0.242,1.354-0.411,2.248-0.229c0.892,0.182,1.58,0.663,1.946,1.087
																						C706.982,214.804,707.07,215.15,706.973,215.211z"/>
																				</g>
																			</g>
																		</g>
																	</g>
																</g>
															</g>
														</g>
													</g>
												</g>
											</g>
											<g>
												<g>
													<g>
														<g>
															<g>
																<g>
																	<g>
																		<g>
																			<g>
																				<path fill="#263238" d="M710.059,226.91c0.01-0.084,0.933-0.061,2.416,0.044
																					c0.376,0.036,0.738,0.032,0.85-0.206c0.139-0.249,0.064-0.676-0.026-1.138c-0.169-0.957-0.345-1.96-0.527-3.011
																					c-0.714-4.279-1.15-7.767-0.978-7.794s0.89,3.419,1.601,7.698c0.168,1.053,0.329,2.056,0.479,3.017
																					c0.055,0.445,0.2,0.966-0.098,1.478c-0.153,0.255-0.463,0.4-0.711,0.416c-0.25,0.027-0.457-0.011-0.641-0.037
																					C710.953,227.165,710.049,226.991,710.059,226.91z"/>
																			</g>
																		</g>
																	</g>
																</g>
															</g>
														</g>
													</g>
												</g>
											</g>
											<g>
												<g>
													<g>
														<g>
															<g>
																<g>
																	<g>
																		<g>
																			<g>
																				<path fill="#263238" d="M705.632,227.057c0.236,0.034-0.071,1.594,1.042,2.968
																					c1.11,1.375,2.808,1.532,2.776,1.753c0.002,0.102-0.431,0.229-1.136,0.108
																					c-0.693-0.116-1.654-0.537-2.336-1.378c-0.68-0.842-0.849-1.816-0.773-2.466
																					C705.275,227.378,705.527,227.027,705.632,227.057z"/>
																			</g>
																		</g>
																	</g>
																</g>
															</g>
														</g>
													</g>
												</g>
											</g>
										</g>
									</g>
								</g>
								<g>
									<g>
										<g>
											<g>
												<g>
													<g>
														<g>
															<g>
																<path fill="#263238" d="M708.47,209.655c-0.222,0.362-1.618-0.109-3.345-0.243
																	c-1.724-0.168-3.182,0.054-3.336-0.341c-0.064-0.188,0.246-0.509,0.87-0.778c0.621-0.267,1.562-0.453,2.597-0.364
																	c1.032,0.092,1.928,0.438,2.492,0.811C708.317,209.113,708.568,209.481,708.47,209.655z"/>
															</g>
														</g>
													</g>
												</g>
											</g>
										</g>
									</g>
								</g>
								<g>
									<g>
										<g>
											<g>
												<g>
													<g>
														<g>
															<g>
																<path fill="#263238" d="M721.453,213.5c-0.318,0.276-1.24-0.26-2.427-0.515c-1.177-0.294-2.242-0.22-2.406-0.606
																	c-0.068-0.186,0.156-0.482,0.657-0.702c0.496-0.222,1.271-0.328,2.085-0.14c0.813,0.188,1.462,0.627,1.811,1.044
																	C721.526,213,721.596,213.364,721.453,213.5z"/>
															</g>
														</g>
													</g>
												</g>
											</g>
										</g>
									</g>
								</g>
							</g>
						</g>
					</g>
				</g>
			</g>
			<g>
				<g>
					<g>
						<g>
							<g>
								<g>
									<g>
										<g>
											<g>
												<path fill="#FFBE9D" d="M690.777,217.087c-0.145-0.101-6.043-3.184-7.117,3.25c-1.071,6.433,5.606,6.183,5.649,6.001
													C689.349,226.153,690.777,217.087,690.777,217.087z"/>
											</g>
										</g>
									</g>
								</g>
							</g>
						</g>
					</g>
				</g>
				<g>
					<g>
						<g>
							<g>
								<g>
									<g>
										<g>
											<g>
												<g>
													<path fill="#EB996E" d="M687.751,223.573c-0.026-0.027-0.126,0.058-0.33,0.114c-0.199,0.054-0.525,0.058-0.841-0.123
														c-0.637-0.362-1.03-1.538-0.867-2.702c0.081-0.588,0.298-1.124,0.581-1.551c0.274-0.438,0.635-0.715,0.986-0.719
														c0.353-0.022,0.562,0.223,0.611,0.416c0.056,0.194-0.007,0.317,0.025,0.334c0.016,0.019,0.155-0.085,0.147-0.358
														c-0.005-0.133-0.054-0.297-0.186-0.447c-0.133-0.15-0.349-0.252-0.593-0.266c-0.5-0.048-1.023,0.333-1.336,0.801
														c-0.34,0.468-0.597,1.068-0.688,1.729c-0.176,1.303,0.285,2.626,1.171,3.051c0.434,0.195,0.833,0.119,1.054,0
														C687.712,223.725,687.769,223.586,687.751,223.573z"/>
												</g>
											</g>
										</g>
									</g>
								</g>
							</g>
						</g>
					</g>
				</g>
			</g>
			<g>
				<path fill="#263238" d="M726.443,212.032c-4.338,0.273-8.755-1.693-11.457-5.1c-1.887-2.383-3.089-5.506-5.764-6.953
					c-1.8-0.973-4.015-0.985-5.967-0.365c-1.951,0.62-3.671,1.817-5.212,3.166c0.858,5.113-1.416,10.173-3.632,14.861
					c-0.244,0.518-0.523,1.072-1.037,1.325c-0.873,0.431-1.913-0.25-2.437-1.071c-0.834-1.314-0.932-2.958-0.9-4.514
					c0.069-3.547,0.692-7.113,2.135-10.355c1.439-3.242,3.728-6.152,6.723-8.053c3.744-2.376,8.461-3.056,12.795-2.12
					s8.27,3.419,11.217,6.732c1.365,1.539,2.556,3.304,3.021,5.307"/>
			</g>
		</g>
	</g>
</g>
<g id="aab721b6-4aa1-4d02-a3e3-167256aa258c">
	<path fill="#3F3D56" d="M623.358,387.081H612.87c1.227-2.019,3.119-3.313,5.244-3.313S622.133,385.058,623.358,387.081z"/>
	<path fill="none" stroke="#2F2E41" stroke-width="4" stroke-miterlimit="10" d="M425.42,396.355
		c0.522-3.429-2.499-6.318-5.438-8.156c-2.94-1.838-6.375-3.612-7.485-6.907c-1.602-4.72,2.385-9.271,5.475-13.182
		c2.293-2.906,4.232-6.075,5.778-9.439c0.622-1.346,1.183-2.751,1.299-4.228c0.167-2.13-0.603-4.209-1.388-6.2
		c-2.567-6.635-5.292-13.205-8.173-19.711"/>
	<circle fill="#4BBA7A" cx="429.49" cy="341.384" r="7.773"/>
	<circle fill="#4BBA7A" cx="419.909" cy="378.651" r="7.773"/>
	<polygon fill="#F2F2F2" points="465.245,369.456 465.245,384.628 467.313,384.628 472.916,374.183 	"/>
	<path fill="#253F1B" d="M472.96,377.386c-3.296,2.464-4.225,6.791-4.225,6.791s4.414,0.334,7.708-2.13
		c3.296-2.463,4.225-6.791,4.225-6.791S476.255,374.924,472.96,377.386z"/>
	<path fill="#4BBA7A" d="M468.738,384.136c0,0-0.048-0.027-0.135-0.081c-0.07-0.043-0.166-0.103-0.282-0.18
		c-1.036-0.683-3.718-2.689-4.818-5.786c-1.376-3.877,0.249-7.994,0.249-7.994s3.546,1.993,5.053,5.574
		c0.065,0.154,0.126,0.312,0.183,0.472c1.198,3.374,0.123,6.929-0.176,7.795C468.765,384.067,468.738,384.136,468.738,384.136z"/>
	<path fill="#3F3D56" d="M468.754,384.259l-0.051-0.037c-0.036-0.025-3.612-2.653-4.532-6.637c-0.919-3.981,1.145-7.911,1.166-7.95
		l0.029-0.056l0.05,0.037c0.036,0.026,3.613,2.653,4.532,6.636l0,0c0.919,3.983-1.145,7.912-1.166,7.951L468.754,384.259z
		 M465.405,369.742c-0.248,0.495-1.977,4.136-1.126,7.819c0.849,3.683,3.998,6.198,4.438,6.534c0.248-0.495,1.976-4.136,1.126-7.819
		l0,0C468.993,372.594,465.844,370.079,465.405,369.742z"/>
	<path opacity="0.1" enable-background="new    " d="M468.81,383.936c-0.081,0.047-0.15,0.087-0.208,0.119
		c-0.127,0.069-0.197,0.104-0.197,0.104s-0.034-0.101-0.084-0.284c-0.279-1.003-1.078-4.5,0.259-7.712
		c0.07-0.169,0.145-0.333,0.224-0.494c0.065,0.154,0.126,0.312,0.183,0.472C470.184,379.515,469.109,383.07,468.81,383.936z"/>
	<path fill="#4BBA7A" d="M474.335,378.54c-1.58,3.798-5.548,5.76-5.548,5.76s-1.406-4.197,0.175-7.995
		c1.58-3.799,5.548-5.761,5.548-5.761S475.916,374.741,474.335,378.54z"/>
	
		<rect x="464.345" y="377.396" transform="matrix(-0.3868 0.9222 -0.9222 -0.3868 1002.1641 88.5161)" fill="#3F3D56" width="14.616" height="0.109"/>
	<path fill="#18171E" d="M458.119,382.472c0-3.604,2.728-6.527,6.093-6.527s6.093,2.923,6.093,6.527
		c0,3.605-2.728,2.558-6.093,2.558S458.119,386.078,458.119,382.472z"/>
	<ellipse opacity="0.25" fill="#2F2E41" cx="422.858" cy="395.726" rx="7.417" ry="1.902"/>
	<ellipse opacity="0.15" fill="#2F2E41" cx="618.265" cy="387.081" rx="6.953" ry="1.325"/>
	
		<ellipse transform="matrix(0.9355 0.3532 -0.3532 0.9355 172.2326 -178.4178)" opacity="0.15" fill="#2F2E41" cx="574.989" cy="382.716" rx="5.263" ry="1.141"/>
	<ellipse opacity="0.15" fill="#2F2E41" cx="347.942" cy="385.4" rx="6.953" ry="1.325"/>
	
		<ellipse transform="matrix(0.9956 -0.094 0.094 0.9956 -33.9099 31.4809)" opacity="0.25" fill="#2F2E41" cx="317.338" cy="375.827" rx="13.158" ry="3.525"/>
	
		<ellipse transform="matrix(0.9999 0.0101 -0.0101 0.9999 3.8631 -5.1284)" opacity="0.25" fill="#2F2E41" cx="512.182" cy="381.797" rx="78.169" ry="4.627"/>
	
		<ellipse transform="matrix(0.9999 -0.0141 0.0141 0.9999 -5.3889 10.3875)" opacity="0.25" fill="#2F2E41" cx="733.415" cy="387.071" rx="78.169" ry="4.627"/>
	
		<ellipse transform="matrix(0.9999 -0.0141 0.0141 0.9999 -5.3627 10.3388)" opacity="0.25" fill="#2F2E41" cx="730.583" cy="385.51" rx="52.018" ry="2.791"/>
	<ellipse opacity="0.25" fill="#2F2E41" cx="425.329" cy="396.181" rx="3.938" ry="1.01"/>
	<g>
		<path fill="#059447" d="M338.019,384.182c1.12,0.217,2.257,0.38,3.412,0.49c1.176,0.114,2.369,0.173,3.579,0.173
			c1.682,0,3.362,0.229,5.029,0l19.071-0.344c0.721-1.466,1.095-3.077,1.095-4.711c0-0.236-0.009-0.472-0.024-0.704
			c0.281-0.924,0.436-1.881,0.458-2.846c0-0.084,0-0.168,0-0.253c0.002-1.667-0.389-3.312-1.141-4.799l-6.171,1.918l5.413-3.184
			c-1.839-2.656-4.784-4.335-8.007-4.563c-0.13-0.202-0.27-0.397-0.418-0.588c-0.04-0.053-0.082-0.106-0.122-0.158
			c-0.094-0.119-0.192-0.236-0.294-0.351l-0.249,0.076l-8.602,2.675l7.091-4.174l0.168-0.098c-2.328-1.781-5.287-2.525-8.181-2.058
			c-0.162,0.024-0.324,0.055-0.484,0.089c-1.436,0.3-2.793,0.894-3.987,1.744c-2.016,1.432-3.472,3.52-4.119,5.906l2.252,2.591
			l0.817,0.941l1.826,2.102l1.424,1.639l1.269,1.461l-2.18-1.572l-3.062-2.211l-3.001-2.168c-1.07,0.76-1.991,1.709-2.717,2.801
			c-0.782,1.172-1.321,2.489-1.588,3.873c-0.396,2.063-0.177,4.197,0.631,6.138L338.019,384.182z"/>
		<path opacity="0.1" enable-background="new    " d="M370.096,379.792c0,1.631-0.374,3.242-1.093,4.707l-19.072,0.347
			c-1.668,0.229-3.348,0-5.031,0c-1.207,0-2.403-0.057-3.578-0.174c-1.154-0.109-2.291-0.271-3.413-0.49l-0.811-0.166
			c-0.808-1.938-1.027-4.071-0.632-6.135c0.268-1.384,0.808-2.7,1.588-3.875c0.727-1.091,1.648-2.039,2.717-2.799l3.003,2.167
			l3.063,2.213l2.177,1.569l-1.267-1.461l-1.425-1.637l-0.709-0.818c4.675,5.045,14.252,3.732,21.069,5.145
			c1.313,0.271,2.442,0.68,3.412,1.168C370.096,379.63,370.096,379.711,370.096,379.792z"/>
	</g>
	<path fill="#3F3D56" d="M353.185,385.4h-10.487c1.226-2.019,3.119-3.313,5.244-3.313S351.96,383.378,353.185,385.4z"/>
	<path fill="#57B894" d="M408.647,327.843c0.113-2.498,1.493-4.767,3.661-6.015l1.642,3.247l-0.052-3.934
		c0.786-0.229,1.604-0.327,2.421-0.292c4.039,0.2,7.151,3.638,6.951,7.677c-0.2,4.037-3.637,7.151-7.675,6.95
		c-4.023-0.199-7.129-3.61-6.954-7.634H408.647z"/>
	<path opacity="0.1" enable-background="new    " d="M409.635,329.799c1.695,0.183,3.342,0.712,5.042,0.815
		c1.699,0.105,3.567-0.303,4.645-1.621c0.575-0.711,0.867-1.616,1.354-2.391c0.464-0.723,1.1-1.322,1.851-1.742
		c1.745,3.648,0.203,8.021-3.445,9.767c-3.648,1.745-8.02,0.202-9.765-3.445c-0.221-0.463-0.393-0.947-0.514-1.446
		C409.083,329.746,409.36,329.767,409.635,329.799z"/>
	<path fill="#57B894" d="M412.007,365.805c-2.089-1.374-3.334-3.72-3.298-6.221l3.63,0.248l-3.407-1.966
		c0.205-0.792,0.539-1.546,0.986-2.23c2.237-3.369,6.782-4.286,10.151-2.05c3.368,2.235,4.288,6.781,2.051,10.149
		c-2.228,3.355-6.747,4.282-10.116,2.074L412.007,365.805z"/>
	<path opacity="0.1" enable-background="new    " d="M414.193,365.956c1.023-1.363,2.32-2.509,3.278-3.916
		c0.959-1.407,1.563-3.221,0.98-4.821c-0.317-0.858-0.946-1.571-1.362-2.387c-0.384-0.768-0.574-1.621-0.551-2.481
		c4.028,0.365,6.998,3.927,6.633,7.954s-3.925,6.996-7.952,6.632c-0.511-0.047-1.015-0.146-1.506-0.298
		C413.865,366.404,414.026,366.177,414.193,365.956z"/>
</g>
<g id="圖層_5">
	<g opacity="0.5">
		<circle fill="#FFFFFF" cx="615.579" cy="125.934" r="1.209"/>
		<circle fill="#FFFFFF" cx="620.618" cy="125.934" r="1.209"/>
		<circle fill="#FFFFFF" cx="625.656" cy="125.934" r="1.209"/>
		<circle fill="#FFFFFF" cx="630.697" cy="125.934" r="1.209"/>
		<circle fill="#FFFFFF" cx="635.736" cy="125.934" r="1.209"/>
		<circle fill="#FFFFFF" cx="640.775" cy="125.934" r="1.209"/>
		<circle fill="#FFFFFF" cx="645.814" cy="125.934" r="1.209"/>
		<circle fill="#FFFFFF" cx="615.579" cy="129.764" r="1.21"/>
		<circle fill="#FFFFFF" cx="620.618" cy="129.764" r="1.21"/>
		<circle fill="#FFFFFF" cx="625.656" cy="129.764" r="1.21"/>
		<circle fill="#FFFFFF" cx="630.697" cy="129.764" r="1.21"/>
		<circle fill="#FFFFFF" cx="635.736" cy="129.764" r="1.21"/>
		<circle fill="#FFFFFF" cx="640.775" cy="129.764" r="1.21"/>
		<circle fill="#FFFFFF" cx="645.814" cy="129.764" r="1.21"/>
		<circle fill="#FFFFFF" cx="615.579" cy="133.594" r="1.209"/>
		<circle fill="#FFFFFF" cx="620.618" cy="133.594" r="1.209"/>
		<circle fill="#FFFFFF" cx="625.656" cy="133.594" r="1.209"/>
		<circle fill="#FFFFFF" cx="630.697" cy="133.594" r="1.209"/>
		<circle fill="#FFFFFF" cx="635.736" cy="133.594" r="1.209"/>
		<circle fill="#FFFFFF" cx="640.775" cy="133.594" r="1.209"/>
		<circle fill="#FFFFFF" cx="645.814" cy="133.594" r="1.209"/>
		<circle fill="#FFFFFF" cx="615.579" cy="137.423" r="1.209"/>
		<circle fill="#FFFFFF" cx="620.618" cy="137.423" r="1.209"/>
		<circle fill="#FFFFFF" cx="615.579" cy="141.253" r="1.209"/>
		<circle fill="#FFFFFF" cx="620.618" cy="141.253" r="1.209"/>
		<circle fill="#FFFFFF" cx="625.656" cy="141.253" r="1.209"/>
		<circle fill="#FFFFFF" cx="625.656" cy="137.423" r="1.209"/>
		<circle fill="#FFFFFF" cx="630.697" cy="137.423" r="1.209"/>
		<circle fill="#FFFFFF" cx="635.736" cy="137.423" r="1.209"/>
		<circle fill="#FFFFFF" cx="640.775" cy="137.423" r="1.209"/>
		<circle fill="#FFFFFF" cx="645.814" cy="137.423" r="1.209"/>
	</g>
	<path fill="#FFFFFF" d="M488.753,254.33c-4.043,1.289-8.365-0.945-9.655-4.986c-1.289-4.045,0.944-8.367,4.987-9.656
		c4.044-1.289,8.366,0.943,9.655,4.986C495.024,248.719,492.793,253.037,488.753,254.33z M484.218,240.103
		c-3.813,1.215-5.92,5.293-4.705,9.107c1.216,3.813,5.294,5.92,9.108,4.703c3.814-1.217,5.92-5.293,4.704-9.107l0,0
		C492.105,240.996,488.031,238.892,484.218,240.103z"/>
	<path opacity="0.5" fill="#FFFFFF" d="M489.002,245.412l-2.104,0.672l-0.671-2.105c-0.125-0.387-0.539-0.6-0.927-0.477
		c-0.386,0.125-0.599,0.537-0.478,0.924l0.672,2.105l-2.105,0.67c-0.387,0.125-0.602,0.539-0.479,0.926
		c0.125,0.389,0.539,0.602,0.926,0.479l2.105-0.67l0.672,2.104c0.123,0.387,0.539,0.602,0.926,0.475
		c0.387-0.123,0.599-0.537,0.477-0.922l-0.67-2.105l2.104-0.67c0.388-0.125,0.602-0.539,0.479-0.926
		C489.803,245.504,489.389,245.289,489.002,245.412L489.002,245.412L489.002,245.412z"/>
	<g opacity="0.5">
		<circle fill="#FFFFFF" cx="386.023" cy="265.019" r="1.223"/>
		<circle fill="#FFFFFF" cx="386.023" cy="259.924" r="1.223"/>
		<circle fill="#FFFFFF" cx="386.023" cy="254.827" r="1.223"/>
		<circle fill="#FFFFFF" cx="386.023" cy="249.731" r="1.224"/>
		<circle fill="#FFFFFF" cx="386.023" cy="244.635" r="1.223"/>
		<circle fill="#FFFFFF" cx="386.023" cy="239.539" r="1.223"/>
		<circle fill="#FFFFFF" cx="386.023" cy="234.445" r="1.223"/>
		<circle fill="#FFFFFF" cx="389.896" cy="265.019" r="1.223"/>
		<circle fill="#FFFFFF" cx="389.896" cy="259.924" r="1.223"/>
		<circle fill="#FFFFFF" cx="389.896" cy="254.827" r="1.223"/>
		<circle fill="#FFFFFF" cx="389.896" cy="249.731" r="1.224"/>
		<circle fill="#FFFFFF" cx="389.896" cy="244.635" r="1.223"/>
		<circle fill="#FFFFFF" cx="389.896" cy="239.539" r="1.223"/>
		<circle fill="#FFFFFF" cx="389.896" cy="234.445" r="1.223"/>
		<circle fill="#FFFFFF" cx="393.768" cy="265.019" r="1.223"/>
		<circle fill="#FFFFFF" cx="393.768" cy="259.924" r="1.223"/>
		<circle fill="#FFFFFF" cx="393.768" cy="254.827" r="1.223"/>
		<circle fill="#FFFFFF" cx="393.768" cy="249.731" r="1.224"/>
		<circle fill="#FFFFFF" cx="393.768" cy="244.635" r="1.223"/>
		<circle fill="#FFFFFF" cx="393.768" cy="239.539" r="1.223"/>
		<circle fill="#FFFFFF" cx="393.768" cy="234.445" r="1.223"/>
		<circle fill="#FFFFFF" cx="397.641" cy="265.019" r="1.223"/>
		<circle fill="#FFFFFF" cx="397.641" cy="259.924" r="1.223"/>
		<circle fill="#FFFFFF" cx="401.514" cy="265.019" r="1.223"/>
		<circle fill="#FFFFFF" cx="401.514" cy="259.924" r="1.223"/>
		<circle fill="#FFFFFF" cx="401.514" cy="254.827" r="1.223"/>
		<circle fill="#FFFFFF" cx="397.641" cy="254.827" r="1.223"/>
		<circle fill="#FFFFFF" cx="397.641" cy="249.731" r="1.224"/>
		<circle fill="#FFFFFF" cx="397.641" cy="244.635" r="1.223"/>
		<circle fill="#FFFFFF" cx="397.641" cy="239.539" r="1.223"/>
		<circle fill="#FFFFFF" cx="397.641" cy="234.445" r="1.223"/>
	</g>
	<path fill="#FFFFFF" d="M572.417,148.53h-82.679c-0.846,0-1.531,0.686-1.532,1.531v70.699c0,0.846,0.686,1.531,1.532,1.531h82.679
		c0.846,0,1.531-0.686,1.531-1.531v-70.699C573.948,149.216,573.262,148.531,572.417,148.53z M573.335,220.76
		c0,0.507-0.411,0.919-0.918,0.922h-82.679c-0.508-0.002-0.919-0.415-0.918-0.922v-70.699c-0.001-0.508,0.41-0.92,0.918-0.92h82.679
		c0.507,0.001,0.918,0.413,0.918,0.92V220.76z"/>
	<path opacity="0.5" fill="#FFFFFF" d="M508.822,209.721c0,0.108-0.003,0.218-0.008,0.323c-0.18,3.439-3.115,6.083-6.555,5.903
		c-3.188-0.167-5.735-2.715-5.902-5.903c-0.006-0.105-0.008-0.215-0.008-0.323c0-3.445,2.791-6.237,6.236-6.237
		C506.03,203.484,508.822,206.276,508.822,209.721L508.822,209.721z"/>
	<path opacity="0.5" fill="#FFFFFF" d="M565.992,205.562h-49.005c-0.573,0.001-1.038,0.468-1.036,1.042
		c0.002,0.572,0.465,1.036,1.036,1.038h49.005c0.574-0.002,1.038-0.469,1.037-1.043
		C567.028,206.027,566.564,205.563,565.992,205.562z"/>
	<path opacity="0.5" fill="#FFFFFF" d="M538.074,211.8h-21.087c-0.573,0.001-1.038,0.467-1.036,1.04
		c0.002,0.571,0.465,1.036,1.036,1.037h21.087c0.573,0,1.038-0.464,1.04-1.037c0.001-0.573-0.463-1.039-1.036-1.04
		C538.077,211.8,538.075,211.8,538.074,211.8z"/>
	<path fill="#FFFFFF" d="M592.059,198.22h-82.679c-1.17-0.001-2.116-0.95-2.117-2.119v-36.284c0.001-1.168,0.947-2.116,2.117-2.117
		h82.679c1.169,0.001,2.116,0.949,2.118,2.117v36.284C594.176,197.27,593.228,198.219,592.059,198.22z M509.381,158.444
		c-0.759,0-1.373,0.616-1.375,1.374v36.284c0.002,0.759,0.616,1.374,1.375,1.375h82.679c0.759-0.001,1.373-0.616,1.375-1.375
		v-36.284c-0.002-0.758-0.616-1.374-1.375-1.374H509.381z"/>
	<path opacity="0.5" fill="#FFFFFF" d="M526.219,170.934c-0.574,0-1.04,0.464-1.041,1.038c0,0.574,0.465,1.04,1.039,1.041
		c0.001,0,0.001,0,0.002,0h49.004c0.574,0.001,1.039-0.465,1.04-1.039c0.001-0.574-0.464-1.04-1.038-1.04c-0.001,0-0.002,0-0.002,0
		H526.219z"/>
	<path opacity="0.5" fill="#FFFFFF" d="M526.219,176.957c-0.574,0-1.04,0.465-1.04,1.04c0,0.574,0.466,1.04,1.04,1.04h49.004
		c0.574,0,1.039-0.466,1.039-1.04c0-0.574-0.465-1.04-1.039-1.04H526.219z"/>
	<path opacity="0.5" fill="#FFFFFF" d="M526.219,182.906c-0.574,0.001-1.039,0.467-1.039,1.041c0,0.573,0.466,1.038,1.039,1.039
		h21.086c0.574,0,1.039-0.465,1.039-1.04s-0.465-1.04-1.039-1.04H526.219z"/>
	<path fill="#FFFFFF" d="M477.895,240.438l-10.088-7.6l2.402-0.249c0.179-0.019,0.31-0.179,0.291-0.358
		c-0.019-0.181-0.179-0.311-0.359-0.292l-3.579,0.371l0.631,3.542c0.032,0.179,0.202,0.297,0.379,0.266
		c0.177-0.032,0.296-0.202,0.265-0.379l-0.424-2.379l10.088,7.6c0.145,0.109,0.349,0.08,0.458-0.063
		C478.068,240.752,478.039,240.547,477.895,240.438L477.895,240.438z"/>
	<path fill="#FFFFFF" d="M512.377,157.074h-73.833c-0.755-0.001-1.366-0.613-1.367-1.368v-18.314
		c0.001-0.755,0.612-1.366,1.367-1.367h73.833c0.754,0.001,1.366,0.612,1.367,1.367v18.314
		C513.743,156.462,513.131,157.073,512.377,157.074z M438.544,136.573c-0.453,0-0.82,0.367-0.82,0.82v18.314
		c0,0.453,0.368,0.82,0.82,0.82h73.833c0.452,0,0.819-0.367,0.819-0.82v-18.314c0-0.453-0.367-0.82-0.819-0.82H438.544z"/>
	<circle opacity="0.5" fill="#FFFFFF" cx="450.016" cy="145.847" r="5.57"/>
	<path opacity="0.5" fill="#FFFFFF" d="M462.879,142.134c-0.513-0.002-0.93,0.413-0.932,0.925s0.412,0.93,0.925,0.932
		c0.002,0,0.004,0,0.006,0h43.759c0.514,0.001,0.93-0.414,0.932-0.926c0-0.513-0.414-0.929-0.928-0.931c0,0-0.002,0-0.004,0H462.879
		z"/>
	<path opacity="0.5" fill="#FFFFFF" d="M462.879,147.703c-0.513-0.001-0.93,0.413-0.932,0.925c-0.002,0.513,0.412,0.93,0.925,0.932
		c0.002,0,0.004,0,0.006,0h18.83c0.513,0.001,0.929-0.413,0.93-0.926c0.001-0.513-0.413-0.929-0.926-0.931c-0.001,0-0.002,0-0.004,0
		H462.879z"/>
	<path fill="#FFFFFF" d="M594.132,220.786h32.814c0.756,0.001,1.366,0.612,1.367,1.368v34.173c-0.001,0.756-0.611,1.367-1.367,1.369
		h-32.814c-0.755-0.002-1.365-0.613-1.367-1.369v-34.173C592.766,221.399,593.377,220.787,594.132,220.786z M626.946,257.148
		c0.453,0,0.82-0.367,0.82-0.82v-34.173c0-0.453-0.367-0.821-0.82-0.821h-32.814c-0.453,0-0.819,0.368-0.819,0.821v34.173
		c0,0.453,0.366,0.82,0.819,0.82H626.946z"/>
	<path opacity="0.5" fill="#FFFFFF" d="M619.955,250.648c0.512,0,0.928-0.416,0.928-0.928c0-0.514-0.416-0.93-0.928-0.93h-18.831
		c-0.512,0-0.929,0.416-0.929,0.93c0,0.512,0.417,0.928,0.929,0.928H619.955z"/>
	<path opacity="0.5" fill="#FFFFFF" d="M619.955,245.18c0.512,0,0.928-0.415,0.929-0.928c0-0.513-0.415-0.929-0.927-0.929
		c-0.001,0-0.002,0-0.002,0h-18.831c-0.512-0.001-0.929,0.414-0.929,0.927c-0.001,0.513,0.414,0.929,0.928,0.93h0.001H619.955z"/>
	<path opacity="0.5" fill="#FFFFFF" d="M610.539,227.834c3.228,0,5.844,2.615,5.844,5.843c0,3.227-2.616,5.843-5.844,5.843
		c-3.227,0-5.842-2.616-5.842-5.843C604.7,230.451,607.314,227.837,610.539,227.834z"/>
	<path opacity="0.5" fill-rule="evenodd" clip-rule="evenodd" fill="#FFFFFF" d="M442.211,204.666
		c0.693,1.039,1.221,2.143,2.035,2.962c0.804,0.811,1.883,1.358,2.875,1.968c0.429,0.266,1.053,0.293,1.375,0.631
		c0.252,0.268,0.361,0.941,0.197,1.256c-0.147,0.276-0.862,0.53-1.15,0.399c-0.745-0.335-1.35-0.985-2.094-1.322
		c-0.684-0.309-1.478-0.374-2.224-0.546c0.006,0.771-0.217,1.645,0.068,2.294c0.437,0.995,1.302,1.794,1.831,2.762
		c0.265,0.483,0.247,1.156,0.22,1.735c-0.006,0.13-0.722,0.424-0.873,0.314c-0.455-0.33-0.905-0.767-1.152-1.263
		c-0.629-1.266-1.046-2.652-1.784-3.847c-0.185-0.299-1.28-0.188-1.897-0.031c-0.637,0.162-1.171,0.778-1.802,0.878
		c-0.41,0.064-0.91-0.438-1.368-0.687c0.343-0.399,0.61-0.991,1.042-1.157c0.881-0.34,1.853-0.45,2.786-0.654
		c-0.021-0.198-0.044-0.396-0.065-0.595c-0.52-0.003-1.067,0.099-1.553-0.033c-0.627-0.166-1.213-0.5-1.788-0.816
		c-0.053-0.03,0.081-0.655,0.185-0.673c0.573-0.097,1.163-0.119,1.746-0.105c0.188,0.004,0.373,0.192,0.558,0.298
		c0.056-0.181,0.112-0.358,0.167-0.539c-0.715-0.353-1.421-0.726-2.148-1.054c-2.507-1.137-2.848-2.301-1.238-4.55
		c0.643-0.899,1.401-1.714,2.211-2.692c-10.519-1.212-17.014-7.345-21.018-17.287c-1.081,3.662-3.758,3.295-6.299,3.456
		c-0.964,0.06-1.885,0.706-2.839,1.051c-0.643,0.233-1.308,0.407-1.963,0.606c0.053-0.62,0.108-1.242,0.171-1.992
		c-0.455,0.195-1.033,0.549-1.658,0.683c-0.514,0.111-1.114,0.053-1.612-0.116c-0.224-0.077-0.468-0.849-0.408-0.893
		c0.434-0.312,0.926-0.582,1.437-0.738c0.441-0.136,0.934-0.105,1.793-0.185c-0.511-0.607-0.925-0.957-1.146-1.402
		c-0.206-0.414-0.205-0.93-0.295-1.402c0.489,0.122,1.051,0.135,1.453,0.395c0.392,0.254,0.623,0.759,0.999,1.252
		c0.021-0.919,0.039-1.629,0.054-2.338c0.554,0.412,1.109,0.822,1.556,1.155c0.342-0.296,0.79-0.682,1.236-1.069
		c0.206,0.585,0.409,1.17,0.64,1.825c2.394,0.164,4.745-2.799,3.839-5.416c-0.88-2.535-2.033-4.98-4.176-6.821
		c-2.674-2.3-3.377-5.252-2.71-8.67c0.239-1.226,0-2.54,0.162-3.788c0.205-1.588,0.119-3.45,2.042-4.146
		c2.001-0.725,3.115,0.76,4.303,1.968c1.068,1.087,2.436,1.998,3.156,3.278c1.026,1.83,2.038,3.875,2.249,5.913
		c0.447,4.365,2.412,6.82,6.821,7.436c1.632,0.229,3.278,0.347,4.783,0.503c-0.058-1.155-0.368-2.482-0.092-2.618
		c1.433-0.703,1.034,1.148,2.061,1.68c-0.19-0.839-0.383-1.467-0.462-2.111c-0.051-0.419-0.043-0.916,0.145-1.266
		c0.109-0.206,0.805-0.367,0.925-0.245c0.293,0.304,0.489,0.766,0.57,1.194c0.075,0.396-0.052,0.831,0.25,1.401
		c0.255-0.599,0.464-1.224,0.783-1.788c0.231-0.413,0.556-0.827,0.944-1.069c0.152-0.093,0.846,0.264,0.857,0.447
		c0.032,0.451-0.07,1.004-0.329,1.364c-0.555,0.773-1.243,1.452-1.877,2.169c0.097,0.092,0.193,0.187,0.291,0.279
		c0.39-0.298,0.745-0.73,1.185-0.857c0.438-0.127,0.964,0.051,1.452,0.095c-0.103,0.434-0.125,1.201-0.321,1.249
		c-2.068,0.494-3.347,2.349-5.22,3.013c-0.98,0.348-2.268-0.203-3.42-0.306c-0.402-0.037-0.815,0.05-1.224,0.083
		c-0.091,0.14-0.184,0.283-0.275,0.424c2.35,2.068,4.734,4.102,7.037,6.223c1.391,1.278,2.683,2.67,3.97,4.057
		c1.065,1.148,2.059,2.362,3.298,3.792c0.13-0.742,0.185-1.134,0.27-1.52c0.392-1.776,1.549-2.72,3.465-2.841
		c2.313-0.147,2.536-0.64,1.458-2.659c-0.235-0.441,0.102-1.188,0.175-1.793c0.472,0.318,1.077,0.543,1.376,0.98
		c0.305,0.443,0.31,1.093,0.445,1.654c0.149,0.042,0.298,0.085,0.449,0.127c0.199-0.711,0.38-1.429,0.605-2.131
		c0.194-0.611,0.384-1.24,0.709-1.781c0.066-0.108,1.053,0.109,1.066,0.235c0.074,0.688,0.088,1.425-0.095,2.083
		c-0.163,0.576-0.614,1.071-1.022,1.742c1.705,0.035,3.195,0.228,4.478-1.017c0.327-0.317,1.168-0.101,1.774-0.129
		c-0.156,0.644-0.12,1.655-0.506,1.856c-0.831,0.432-1.872,0.535-2.838,0.609c-1,0.075-2.186-0.21-2.408,1.169
		c-0.197,1.219,0.77,1.648,1.722,2.141c0.711,0.367,1.247,1.098,1.794,1.724c0.05,0.058-0.486,0.805-0.567,0.772
		c-0.844-0.336-1.967-0.56-2.397-1.218c-0.831-1.267-1.753-1.64-3.184-1.453c-1.132,0.147-1.372,0.722-1.049,1.618
		c0.984,2.749,1.912,5.29,4.389,7.441c6.226,5.41,8.974,12.639,9.038,20.89c0.037,4.803-1.233,9.321-2.936,13.742
		c-2.451,6.362-5.486,12.396-10.273,17.375c-1.134,1.18-2.396,2.242-3.663,3.283c-2.059,1.691-3.643,3.68-4.326,6.303
		c-0.071,0.275-0.242,0.521-0.367,0.781c-0.161-0.041-0.324-0.088-0.487-0.129c0.283-1.23,0.287-2.629,0.91-3.648
		c1.171-1.914,2.671-3.635,4.087-5.391c1.354-1.678,3.047-3.137,4.116-4.973c3.592-6.169,6.352-12.724,7.375-19.836
		c1.188-8.252-0.72-15.581-7.262-21.244c-1.261-1.092-2.646-1.75-4.3-0.657C443.081,204.451,442.531,204.548,442.211,204.666z"/>
	<path opacity="0.2" fill-rule="evenodd" clip-rule="evenodd" fill="#FFFFFF" d="M446.666,248.75c-1.88,1.789-3.4,3.85-4.58,5.799
		c-1.23,1.33-2.17,2.871-2.65,4.721c-0.07,0.279-0.24,0.52-0.37,0.779c-0.16-0.039-0.32-0.09-0.49-0.129
		c0.29-1.23,0.29-2.631,0.92-3.65c1.17-1.91,2.67-3.631,4.08-5.391c1.36-1.67,3.05-3.129,4.12-4.969
		c3.59-6.17,6.35-12.72,7.37-19.84c1.19-8.25-0.72-15.58-7.26-21.24c-1.26-1.09-2.65-1.75-4.3-0.66c-0.43,0.29-0.98,0.38-1.3,0.5
		c0.69,1.04,1.22,2.14,2.04,2.96c0.8,0.811,1.88,1.36,2.87,1.97c0.43,0.271,1.05,0.29,1.38,0.631c0.25,0.27,0.36,0.939,0.19,1.26
		c-0.14,0.27-0.86,0.529-1.15,0.39c-0.74-0.33-1.35-0.979-2.09-1.32c-0.68-0.31-1.48-0.369-2.22-0.54c0,0.771-0.22,1.641,0.06,2.29
		c0.44,1,1.3,1.801,1.83,2.761c0.27,0.489,0.25,1.16,0.22,1.739c0,0.131-0.72,0.421-0.87,0.311c-0.45-0.33-0.9-0.76-1.15-1.26
		c-0.63-1.271-1.05-2.65-1.78-3.851c-0.19-0.3-1.28-0.189-1.9-0.029c-0.64,0.159-1.17,0.779-1.8,0.88
		c-0.41,0.06-0.91-0.44-1.37-0.69c0.34-0.4,0.61-0.99,1.04-1.15c0.88-0.34,1.85-0.449,2.79-0.659c-0.03-0.2-0.05-0.391-0.07-0.591
		c-0.52-0.01-1.07,0.101-1.55-0.039c-0.63-0.16-1.22-0.5-1.79-0.811c-0.05-0.03,0.08-0.66,0.19-0.68c0.57-0.09,1.16-0.12,1.74-0.101
		c0.19,0,0.37,0.19,0.56,0.301c0.06-0.181,0.11-0.36,0.17-0.54c-0.72-0.36-1.43-0.73-2.15-1.061c-2.51-1.13-2.85-2.3-1.24-4.55
		c0.64-0.9,1.4-1.71,2.21-2.69c-10.52-1.21-17.01-7.34-21.02-17.28c-1.08,3.66-3.75,3.291-6.29,3.451
		c-0.97,0.06-1.89,0.709-2.84,1.049c-0.65,0.24-1.31,0.41-1.97,0.611c0.06-0.621,0.11-1.24,0.17-1.99
		c-0.45,0.189-1.03,0.539-1.65,0.68c-0.52,0.109-1.12,0.05-1.62-0.12c-0.22-0.069-0.46-0.851-0.4-0.89
		c0.43-0.311,0.92-0.58,1.43-0.74c0.44-0.13,0.94-0.1,1.8-0.18c-0.51-0.61-0.93-0.961-1.15-1.4c-0.21-0.42-0.21-0.93-0.3-1.41
		c0.49,0.12,1.06,0.141,1.46,0.4c0.39,0.25,0.62,0.76,1,1.25c0.02-0.92,0.03-1.631,0.05-2.34c0.55,0.41,1.11,0.819,1.56,1.16
		c0.34-0.301,0.79-0.681,1.23-1.07c0.21,0.58,0.41,1.17,0.64,1.82c2.4,0.17,4.75-2.801,3.84-5.41c-0.88-2.541-2.03-4.98-4.18-6.82
		c-2.67-2.301-3.37-5.26-2.71-8.68c0.24-1.221,0.01-2.53,0.17-3.78c0.2-1.591,0.12-3.45,2.04-4.15c0.68-0.25,1.26-0.239,1.78-0.069
		c-2.16,0.42-1.54,2.97-1.6,6.189c-0.06,4-0.56,5.62,2,8.74c2.57,3.13,2.69,4.13,10.94,15.359c8.25,11.23,17.25,6.521,31.5,22.83
		C468.496,223.119,446.666,248.75,446.666,248.75z"/>
</g>
</svg>
